SplineFontDB: 3.0
FontName: SecureFont
FullName: SecureFont
FamilyName: SecureFont
Weight: Regular
Copyright: MIT License\n\nCopyright (c) 2018 Pinak Saha\n\nPermission is hereby granted, free of charge, to any person obtaining a copy\nof this software and associated documentation files (the "Software"), to deal\nin the Software without restriction, including without limitation the rights\nto use, copy, modify, merge, publish, distribute, sublicense, and/or sell\ncopies of the Software, and to permit persons to whom the Software is\nfurnished to do so, subject to the following conditions:\n\nThe above copyright notice and this permission notice shall be included in all\ncopies or substantial portions of the Software.\n\nTHE SOFTWARE IS PROVIDED "AS IS", WITHOUT WARRANTY OF ANY KIND, EXPRESS OR\nIMPLIED, INCLUDING BUT NOT LIMITED TO THE WARRANTIES OF MERCHANTABILITY,\nFITNESS FOR A PARTICULAR PURPOSE AND NONINFRINGEMENT. IN NO EVENT SHALL THE\nAUTHORS OR COPYRIGHT HOLDERS BE LIABLE FOR ANY CLAIM, DAMAGES OR OTHER\nLIABILITY, WHETHER IN AN ACTION OF CONTRACT, TORT OR OTHERWISE, ARISING FROM,\nOUT OF OR IN CONNECTION WITH THE SOFTWARE OR THE USE OR OTHER DEALINGS IN THE\nSOFTWARE.\n
UComments: "2018-11-27: Created with FontForge (http://fontforge.org)"
Version: 001.000
ItalicAngle: 0
UnderlinePosition: -100
UnderlineWidth: 50
Ascent: 800
Descent: 200
InvalidEm: 0
LayerCount: 2
Layer: 0 0 "Back" 1
Layer: 1 0 "Fore" 0
XUID: [1021 412 846336582 3701]
StyleMap: 0x0000
FSType: 0
OS2Version: 0
OS2_WeightWidthSlopeOnly: 0
OS2_UseTypoMetrics: 1
CreationTime: 1543345350
ModificationTime: 1543350540
PfmFamily: 17
TTFWeight: 400
TTFWidth: 5
LineGap: 90
VLineGap: 0
OS2TypoAscent: 0
OS2TypoAOffset: 1
OS2TypoDescent: 0
OS2TypoDOffset: 1
OS2TypoLinegap: 90
OS2WinAscent: 0
OS2WinAOffset: 1
OS2WinDescent: 0
OS2WinDOffset: 1
HheadAscent: 0
HheadAOffset: 1
HheadDescent: 0
HheadDOffset: 1
OS2Vendor: 'PfEd'
MarkAttachClasses: 1
DEI: 91125
LangName: 1033
Encoding: ISO8859-1

StartChar: uni0000
Encoding: 0 0 0
Width: 1000
VWidth: 0
HStem: -184.375 21G<366.211 633.789> -184.375 21G<366.211 633.789> 764.375 20G<366.211 633.789> 764.375 20G<366.211 633.789>
VStem: 15.625 968.75<155.937 444.063>
LayerCount: 2
Fore
SplineSet
500 784.375 m 0xa8
 767.578125 784.375 984.375 567.578125 984.375 300 c 0
 984.375 32.421875 767.578125 -184.375 500 -184.375 c 0
 232.421875 -184.375 15.625 32.421875 15.625 300 c 0
 15.625 567.578125 232.421875 784.375 500 784.375 c 0xa8
EndSplineSet
Validated: 1
EndChar

StartChar: uni0001
Encoding: 1 1 1
Width: 1000
VWidth: 0
HStem: -184.375 21G<366.211 633.789> -184.375 21G<366.211 633.789> 764.375 20G<366.211 633.789> 764.375 20G<366.211 633.789>
VStem: 15.625 968.75<155.937 444.063>
LayerCount: 2
Fore
SplineSet
500 784.375 m 0xa8
 767.578125 784.375 984.375 567.578125 984.375 300 c 0
 984.375 32.421875 767.578125 -184.375 500 -184.375 c 0
 232.421875 -184.375 15.625 32.421875 15.625 300 c 0
 15.625 567.578125 232.421875 784.375 500 784.375 c 0xa8
EndSplineSet
Validated: 1
EndChar

StartChar: uni0002
Encoding: 2 2 2
Width: 1000
VWidth: 0
HStem: -184.375 21G<366.211 633.789> -184.375 21G<366.211 633.789> 764.375 20G<366.211 633.789> 764.375 20G<366.211 633.789>
VStem: 15.625 968.75<155.937 444.063>
LayerCount: 2
Fore
SplineSet
500 784.375 m 0xa8
 767.578125 784.375 984.375 567.578125 984.375 300 c 0
 984.375 32.421875 767.578125 -184.375 500 -184.375 c 0
 232.421875 -184.375 15.625 32.421875 15.625 300 c 0
 15.625 567.578125 232.421875 784.375 500 784.375 c 0xa8
EndSplineSet
Validated: 1
EndChar

StartChar: uni0003
Encoding: 3 3 3
Width: 1000
VWidth: 0
HStem: -184.375 21G<366.211 633.789> -184.375 21G<366.211 633.789> 764.375 20G<366.211 633.789> 764.375 20G<366.211 633.789>
VStem: 15.625 968.75<155.937 444.063>
LayerCount: 2
Fore
SplineSet
500 784.375 m 0xa8
 767.578125 784.375 984.375 567.578125 984.375 300 c 0
 984.375 32.421875 767.578125 -184.375 500 -184.375 c 0
 232.421875 -184.375 15.625 32.421875 15.625 300 c 0
 15.625 567.578125 232.421875 784.375 500 784.375 c 0xa8
EndSplineSet
Validated: 1
EndChar

StartChar: uni0004
Encoding: 4 4 4
Width: 1000
VWidth: 0
HStem: -184.375 21G<366.211 633.789> -184.375 21G<366.211 633.789> 764.375 20G<366.211 633.789> 764.375 20G<366.211 633.789>
VStem: 15.625 968.75<155.937 444.063>
LayerCount: 2
Fore
SplineSet
500 784.375 m 0xa8
 767.578125 784.375 984.375 567.578125 984.375 300 c 0
 984.375 32.421875 767.578125 -184.375 500 -184.375 c 0
 232.421875 -184.375 15.625 32.421875 15.625 300 c 0
 15.625 567.578125 232.421875 784.375 500 784.375 c 0xa8
EndSplineSet
Validated: 1
EndChar

StartChar: uni0005
Encoding: 5 5 5
Width: 1000
VWidth: 0
HStem: -184.375 21G<366.211 633.789> -184.375 21G<366.211 633.789> 764.375 20G<366.211 633.789> 764.375 20G<366.211 633.789>
VStem: 15.625 968.75<155.937 444.063>
LayerCount: 2
Fore
SplineSet
500 784.375 m 0xa8
 767.578125 784.375 984.375 567.578125 984.375 300 c 0
 984.375 32.421875 767.578125 -184.375 500 -184.375 c 0
 232.421875 -184.375 15.625 32.421875 15.625 300 c 0
 15.625 567.578125 232.421875 784.375 500 784.375 c 0xa8
EndSplineSet
Validated: 1
EndChar

StartChar: uni0006
Encoding: 6 6 6
Width: 1000
VWidth: 0
HStem: -184.375 21G<366.211 633.789> -184.375 21G<366.211 633.789> 764.375 20G<366.211 633.789> 764.375 20G<366.211 633.789>
VStem: 15.625 968.75<155.937 444.063>
LayerCount: 2
Fore
SplineSet
500 784.375 m 0xa8
 767.578125 784.375 984.375 567.578125 984.375 300 c 0
 984.375 32.421875 767.578125 -184.375 500 -184.375 c 0
 232.421875 -184.375 15.625 32.421875 15.625 300 c 0
 15.625 567.578125 232.421875 784.375 500 784.375 c 0xa8
EndSplineSet
Validated: 1
EndChar

StartChar: uni0007
Encoding: 7 7 7
Width: 1000
VWidth: 0
HStem: -184.375 21G<366.211 633.789> -184.375 21G<366.211 633.789> 764.375 20G<366.211 633.789> 764.375 20G<366.211 633.789>
VStem: 15.625 968.75<155.937 444.063>
LayerCount: 2
Fore
SplineSet
500 784.375 m 0xa8
 767.578125 784.375 984.375 567.578125 984.375 300 c 0
 984.375 32.421875 767.578125 -184.375 500 -184.375 c 0
 232.421875 -184.375 15.625 32.421875 15.625 300 c 0
 15.625 567.578125 232.421875 784.375 500 784.375 c 0xa8
EndSplineSet
Validated: 1
EndChar

StartChar: uni0008
Encoding: 8 8 8
Width: 1000
VWidth: 0
HStem: -184.375 21G<366.211 633.789> -184.375 21G<366.211 633.789> 764.375 20G<366.211 633.789> 764.375 20G<366.211 633.789>
VStem: 15.625 968.75<155.937 444.063>
LayerCount: 2
Fore
SplineSet
500 784.375 m 0xa8
 767.578125 784.375 984.375 567.578125 984.375 300 c 0
 984.375 32.421875 767.578125 -184.375 500 -184.375 c 0
 232.421875 -184.375 15.625 32.421875 15.625 300 c 0
 15.625 567.578125 232.421875 784.375 500 784.375 c 0xa8
EndSplineSet
Validated: 1
EndChar

StartChar: uni0009
Encoding: 9 9 9
Width: 1000
VWidth: 0
HStem: -184.375 21G<366.211 633.789> -184.375 21G<366.211 633.789> 764.375 20G<366.211 633.789> 764.375 20G<366.211 633.789>
VStem: 15.625 968.75<155.937 444.063>
LayerCount: 2
Fore
SplineSet
500 784.375 m 0xa8
 767.578125 784.375 984.375 567.578125 984.375 300 c 0
 984.375 32.421875 767.578125 -184.375 500 -184.375 c 0
 232.421875 -184.375 15.625 32.421875 15.625 300 c 0
 15.625 567.578125 232.421875 784.375 500 784.375 c 0xa8
EndSplineSet
Validated: 1
EndChar

StartChar: uni000A
Encoding: 10 10 10
Width: 1000
VWidth: 0
HStem: -184.375 21G<366.211 633.789> -184.375 21G<366.211 633.789> 764.375 20G<366.211 633.789> 764.375 20G<366.211 633.789>
VStem: 15.625 968.75<155.937 444.063>
LayerCount: 2
Fore
SplineSet
500 784.375 m 0xa8
 767.578125 784.375 984.375 567.578125 984.375 300 c 0
 984.375 32.421875 767.578125 -184.375 500 -184.375 c 0
 232.421875 -184.375 15.625 32.421875 15.625 300 c 0
 15.625 567.578125 232.421875 784.375 500 784.375 c 0xa8
EndSplineSet
Validated: 1
EndChar

StartChar: uni000B
Encoding: 11 11 11
Width: 1000
VWidth: 0
HStem: -184.375 21G<366.211 633.789> -184.375 21G<366.211 633.789> 764.375 20G<366.211 633.789> 764.375 20G<366.211 633.789>
VStem: 15.625 968.75<155.937 444.063>
LayerCount: 2
Fore
SplineSet
500 784.375 m 0xa8
 767.578125 784.375 984.375 567.578125 984.375 300 c 0
 984.375 32.421875 767.578125 -184.375 500 -184.375 c 0
 232.421875 -184.375 15.625 32.421875 15.625 300 c 0
 15.625 567.578125 232.421875 784.375 500 784.375 c 0xa8
EndSplineSet
Validated: 1
EndChar

StartChar: uni000C
Encoding: 12 12 12
Width: 1000
VWidth: 0
HStem: -184.375 21G<366.211 633.789> -184.375 21G<366.211 633.789> 764.375 20G<366.211 633.789> 764.375 20G<366.211 633.789>
VStem: 15.625 968.75<155.937 444.063>
LayerCount: 2
Fore
SplineSet
500 784.375 m 0xa8
 767.578125 784.375 984.375 567.578125 984.375 300 c 0
 984.375 32.421875 767.578125 -184.375 500 -184.375 c 0
 232.421875 -184.375 15.625 32.421875 15.625 300 c 0
 15.625 567.578125 232.421875 784.375 500 784.375 c 0xa8
EndSplineSet
Validated: 1
EndChar

StartChar: uni000D
Encoding: 13 13 13
Width: 1000
VWidth: 0
HStem: -184.375 21G<366.211 633.789> -184.375 21G<366.211 633.789> 764.375 20G<366.211 633.789> 764.375 20G<366.211 633.789>
VStem: 15.625 968.75<155.937 444.063>
LayerCount: 2
Fore
SplineSet
500 784.375 m 0xa8
 767.578125 784.375 984.375 567.578125 984.375 300 c 0
 984.375 32.421875 767.578125 -184.375 500 -184.375 c 0
 232.421875 -184.375 15.625 32.421875 15.625 300 c 0
 15.625 567.578125 232.421875 784.375 500 784.375 c 0xa8
EndSplineSet
Validated: 1
EndChar

StartChar: uni000E
Encoding: 14 14 14
Width: 1000
VWidth: 0
HStem: -184.375 21G<366.211 633.789> -184.375 21G<366.211 633.789> 764.375 20G<366.211 633.789> 764.375 20G<366.211 633.789>
VStem: 15.625 968.75<155.937 444.063>
LayerCount: 2
Fore
SplineSet
500 784.375 m 0xa8
 767.578125 784.375 984.375 567.578125 984.375 300 c 0
 984.375 32.421875 767.578125 -184.375 500 -184.375 c 0
 232.421875 -184.375 15.625 32.421875 15.625 300 c 0
 15.625 567.578125 232.421875 784.375 500 784.375 c 0xa8
EndSplineSet
Validated: 1
EndChar

StartChar: uni000F
Encoding: 15 15 15
Width: 1000
VWidth: 0
HStem: -184.375 21G<366.211 633.789> -184.375 21G<366.211 633.789> 764.375 20G<366.211 633.789> 764.375 20G<366.211 633.789>
VStem: 15.625 968.75<155.937 444.063>
LayerCount: 2
Fore
SplineSet
500 784.375 m 0xa8
 767.578125 784.375 984.375 567.578125 984.375 300 c 0
 984.375 32.421875 767.578125 -184.375 500 -184.375 c 0
 232.421875 -184.375 15.625 32.421875 15.625 300 c 0
 15.625 567.578125 232.421875 784.375 500 784.375 c 0xa8
EndSplineSet
Validated: 1
EndChar

StartChar: uni0010
Encoding: 16 16 16
Width: 1000
VWidth: 0
HStem: -184.375 21G<366.211 633.789> -184.375 21G<366.211 633.789> 764.375 20G<366.211 633.789> 764.375 20G<366.211 633.789>
VStem: 15.625 968.75<155.937 444.063>
LayerCount: 2
Fore
SplineSet
500 784.375 m 0xa8
 767.578125 784.375 984.375 567.578125 984.375 300 c 0
 984.375 32.421875 767.578125 -184.375 500 -184.375 c 0
 232.421875 -184.375 15.625 32.421875 15.625 300 c 0
 15.625 567.578125 232.421875 784.375 500 784.375 c 0xa8
EndSplineSet
Validated: 1
EndChar

StartChar: uni0011
Encoding: 17 17 17
Width: 1000
VWidth: 0
HStem: -184.375 21G<366.211 633.789> -184.375 21G<366.211 633.789> 764.375 20G<366.211 633.789> 764.375 20G<366.211 633.789>
VStem: 15.625 968.75<155.937 444.063>
LayerCount: 2
Fore
SplineSet
500 784.375 m 0xa8
 767.578125 784.375 984.375 567.578125 984.375 300 c 0
 984.375 32.421875 767.578125 -184.375 500 -184.375 c 0
 232.421875 -184.375 15.625 32.421875 15.625 300 c 0
 15.625 567.578125 232.421875 784.375 500 784.375 c 0xa8
EndSplineSet
Validated: 1
EndChar

StartChar: uni0012
Encoding: 18 18 18
Width: 1000
VWidth: 0
HStem: -184.375 21G<366.211 633.789> -184.375 21G<366.211 633.789> 764.375 20G<366.211 633.789> 764.375 20G<366.211 633.789>
VStem: 15.625 968.75<155.937 444.063>
LayerCount: 2
Fore
SplineSet
500 784.375 m 0xa8
 767.578125 784.375 984.375 567.578125 984.375 300 c 0
 984.375 32.421875 767.578125 -184.375 500 -184.375 c 0
 232.421875 -184.375 15.625 32.421875 15.625 300 c 0
 15.625 567.578125 232.421875 784.375 500 784.375 c 0xa8
EndSplineSet
Validated: 1
EndChar

StartChar: uni0013
Encoding: 19 19 19
Width: 1000
VWidth: 0
HStem: -184.375 21G<366.211 633.789> -184.375 21G<366.211 633.789> 764.375 20G<366.211 633.789> 764.375 20G<366.211 633.789>
VStem: 15.625 968.75<155.937 444.063>
LayerCount: 2
Fore
SplineSet
500 784.375 m 0xa8
 767.578125 784.375 984.375 567.578125 984.375 300 c 0
 984.375 32.421875 767.578125 -184.375 500 -184.375 c 0
 232.421875 -184.375 15.625 32.421875 15.625 300 c 0
 15.625 567.578125 232.421875 784.375 500 784.375 c 0xa8
EndSplineSet
Validated: 1
EndChar

StartChar: uni0014
Encoding: 20 20 20
Width: 1000
VWidth: 0
HStem: -184.375 21G<366.211 633.789> -184.375 21G<366.211 633.789> 764.375 20G<366.211 633.789> 764.375 20G<366.211 633.789>
VStem: 15.625 968.75<155.937 444.063>
LayerCount: 2
Fore
SplineSet
500 784.375 m 0xa8
 767.578125 784.375 984.375 567.578125 984.375 300 c 0
 984.375 32.421875 767.578125 -184.375 500 -184.375 c 0
 232.421875 -184.375 15.625 32.421875 15.625 300 c 0
 15.625 567.578125 232.421875 784.375 500 784.375 c 0xa8
EndSplineSet
Validated: 1
EndChar

StartChar: uni0015
Encoding: 21 21 21
Width: 1000
VWidth: 0
HStem: -184.375 21G<366.211 633.789> -184.375 21G<366.211 633.789> 764.375 20G<366.211 633.789> 764.375 20G<366.211 633.789>
VStem: 15.625 968.75<155.937 444.063>
LayerCount: 2
Fore
SplineSet
500 784.375 m 0xa8
 767.578125 784.375 984.375 567.578125 984.375 300 c 0
 984.375 32.421875 767.578125 -184.375 500 -184.375 c 0
 232.421875 -184.375 15.625 32.421875 15.625 300 c 0
 15.625 567.578125 232.421875 784.375 500 784.375 c 0xa8
EndSplineSet
Validated: 1
EndChar

StartChar: uni0016
Encoding: 22 22 22
Width: 1000
VWidth: 0
HStem: -184.375 21G<366.211 633.789> -184.375 21G<366.211 633.789> 764.375 20G<366.211 633.789> 764.375 20G<366.211 633.789>
VStem: 15.625 968.75<155.937 444.063>
LayerCount: 2
Fore
SplineSet
500 784.375 m 0xa8
 767.578125 784.375 984.375 567.578125 984.375 300 c 0
 984.375 32.421875 767.578125 -184.375 500 -184.375 c 0
 232.421875 -184.375 15.625 32.421875 15.625 300 c 0
 15.625 567.578125 232.421875 784.375 500 784.375 c 0xa8
EndSplineSet
Validated: 1
EndChar

StartChar: uni0017
Encoding: 23 23 23
Width: 1000
VWidth: 0
HStem: -184.375 21G<366.211 633.789> -184.375 21G<366.211 633.789> 764.375 20G<366.211 633.789> 764.375 20G<366.211 633.789>
VStem: 15.625 968.75<155.937 444.063>
LayerCount: 2
Fore
SplineSet
500 784.375 m 0xa8
 767.578125 784.375 984.375 567.578125 984.375 300 c 0
 984.375 32.421875 767.578125 -184.375 500 -184.375 c 0
 232.421875 -184.375 15.625 32.421875 15.625 300 c 0
 15.625 567.578125 232.421875 784.375 500 784.375 c 0xa8
EndSplineSet
Validated: 1
EndChar

StartChar: uni0018
Encoding: 24 24 24
Width: 1000
VWidth: 0
HStem: -184.375 21G<366.211 633.789> -184.375 21G<366.211 633.789> 764.375 20G<366.211 633.789> 764.375 20G<366.211 633.789>
VStem: 15.625 968.75<155.937 444.063>
LayerCount: 2
Fore
SplineSet
500 784.375 m 0xa8
 767.578125 784.375 984.375 567.578125 984.375 300 c 0
 984.375 32.421875 767.578125 -184.375 500 -184.375 c 0
 232.421875 -184.375 15.625 32.421875 15.625 300 c 0
 15.625 567.578125 232.421875 784.375 500 784.375 c 0xa8
EndSplineSet
Validated: 1
EndChar

StartChar: uni0019
Encoding: 25 25 25
Width: 1000
VWidth: 0
HStem: -184.375 21G<366.211 633.789> -184.375 21G<366.211 633.789> 764.375 20G<366.211 633.789> 764.375 20G<366.211 633.789>
VStem: 15.625 968.75<155.937 444.063>
LayerCount: 2
Fore
SplineSet
500 784.375 m 0xa8
 767.578125 784.375 984.375 567.578125 984.375 300 c 0
 984.375 32.421875 767.578125 -184.375 500 -184.375 c 0
 232.421875 -184.375 15.625 32.421875 15.625 300 c 0
 15.625 567.578125 232.421875 784.375 500 784.375 c 0xa8
EndSplineSet
Validated: 1
EndChar

StartChar: uni001A
Encoding: 26 26 26
Width: 1000
VWidth: 0
HStem: -184.375 21G<366.211 633.789> -184.375 21G<366.211 633.789> 764.375 20G<366.211 633.789> 764.375 20G<366.211 633.789>
VStem: 15.625 968.75<155.937 444.063>
LayerCount: 2
Fore
SplineSet
500 784.375 m 0xa8
 767.578125 784.375 984.375 567.578125 984.375 300 c 0
 984.375 32.421875 767.578125 -184.375 500 -184.375 c 0
 232.421875 -184.375 15.625 32.421875 15.625 300 c 0
 15.625 567.578125 232.421875 784.375 500 784.375 c 0xa8
EndSplineSet
Validated: 1
EndChar

StartChar: uni001B
Encoding: 27 27 27
Width: 1000
VWidth: 0
HStem: -184.375 21G<366.211 633.789> -184.375 21G<366.211 633.789> 764.375 20G<366.211 633.789> 764.375 20G<366.211 633.789>
VStem: 15.625 968.75<155.937 444.063>
LayerCount: 2
Fore
SplineSet
500 784.375 m 0xa8
 767.578125 784.375 984.375 567.578125 984.375 300 c 0
 984.375 32.421875 767.578125 -184.375 500 -184.375 c 0
 232.421875 -184.375 15.625 32.421875 15.625 300 c 0
 15.625 567.578125 232.421875 784.375 500 784.375 c 0xa8
EndSplineSet
Validated: 1
EndChar

StartChar: uni001C
Encoding: 28 28 28
Width: 1000
VWidth: 0
HStem: -184.375 21G<366.211 633.789> -184.375 21G<366.211 633.789> 764.375 20G<366.211 633.789> 764.375 20G<366.211 633.789>
VStem: 15.625 968.75<155.937 444.063>
LayerCount: 2
Fore
SplineSet
500 784.375 m 0xa8
 767.578125 784.375 984.375 567.578125 984.375 300 c 0
 984.375 32.421875 767.578125 -184.375 500 -184.375 c 0
 232.421875 -184.375 15.625 32.421875 15.625 300 c 0
 15.625 567.578125 232.421875 784.375 500 784.375 c 0xa8
EndSplineSet
Validated: 1
EndChar

StartChar: uni001D
Encoding: 29 29 29
Width: 1000
VWidth: 0
HStem: -184.375 21G<366.211 633.789> -184.375 21G<366.211 633.789> 764.375 20G<366.211 633.789> 764.375 20G<366.211 633.789>
VStem: 15.625 968.75<155.937 444.063>
LayerCount: 2
Fore
SplineSet
500 784.375 m 0xa8
 767.578125 784.375 984.375 567.578125 984.375 300 c 0
 984.375 32.421875 767.578125 -184.375 500 -184.375 c 0
 232.421875 -184.375 15.625 32.421875 15.625 300 c 0
 15.625 567.578125 232.421875 784.375 500 784.375 c 0xa8
EndSplineSet
Validated: 1
EndChar

StartChar: uni001E
Encoding: 30 30 30
Width: 1000
VWidth: 0
HStem: -184.375 21G<366.211 633.789> -184.375 21G<366.211 633.789> 764.375 20G<366.211 633.789> 764.375 20G<366.211 633.789>
VStem: 15.625 968.75<155.937 444.063>
LayerCount: 2
Fore
SplineSet
500 784.375 m 0xa8
 767.578125 784.375 984.375 567.578125 984.375 300 c 0
 984.375 32.421875 767.578125 -184.375 500 -184.375 c 0
 232.421875 -184.375 15.625 32.421875 15.625 300 c 0
 15.625 567.578125 232.421875 784.375 500 784.375 c 0xa8
EndSplineSet
Validated: 1
EndChar

StartChar: uni001F
Encoding: 31 31 31
Width: 1000
VWidth: 0
HStem: -184.375 21G<366.211 633.789> -184.375 21G<366.211 633.789> 764.375 20G<366.211 633.789> 764.375 20G<366.211 633.789>
VStem: 15.625 968.75<155.937 444.063>
LayerCount: 2
Fore
SplineSet
500 784.375 m 0xa8
 767.578125 784.375 984.375 567.578125 984.375 300 c 0
 984.375 32.421875 767.578125 -184.375 500 -184.375 c 0
 232.421875 -184.375 15.625 32.421875 15.625 300 c 0
 15.625 567.578125 232.421875 784.375 500 784.375 c 0xa8
EndSplineSet
Validated: 1
EndChar

StartChar: space
Encoding: 32 32 32
Width: 1000
VWidth: 0
HStem: -184.375 21G<366.211 633.789> -184.375 21G<366.211 633.789> 764.375 20G<366.211 633.789> 764.375 20G<366.211 633.789>
VStem: 15.625 968.75<155.937 444.063>
LayerCount: 2
Fore
SplineSet
500 784.375 m 0xa8
 767.578125 784.375 984.375 567.578125 984.375 300 c 0
 984.375 32.421875 767.578125 -184.375 500 -184.375 c 0
 232.421875 -184.375 15.625 32.421875 15.625 300 c 0
 15.625 567.578125 232.421875 784.375 500 784.375 c 0xa8
EndSplineSet
Validated: 1
EndChar

StartChar: exclam
Encoding: 33 33 33
Width: 1000
VWidth: 0
HStem: -184.375 21G<366.211 633.789> -184.375 21G<366.211 633.789> 764.375 20G<366.211 633.789> 764.375 20G<366.211 633.789>
VStem: 15.625 968.75<155.937 444.063>
LayerCount: 2
Fore
SplineSet
500 784.375 m 0xa8
 767.578125 784.375 984.375 567.578125 984.375 300 c 0
 984.375 32.421875 767.578125 -184.375 500 -184.375 c 0
 232.421875 -184.375 15.625 32.421875 15.625 300 c 0
 15.625 567.578125 232.421875 784.375 500 784.375 c 0xa8
EndSplineSet
Validated: 1
EndChar

StartChar: quotedbl
Encoding: 34 34 34
Width: 1000
VWidth: 0
HStem: -184.375 21G<366.211 633.789> -184.375 21G<366.211 633.789> 764.375 20G<366.211 633.789> 764.375 20G<366.211 633.789>
VStem: 15.625 968.75<155.937 444.063>
LayerCount: 2
Fore
SplineSet
500 784.375 m 0xa8
 767.578125 784.375 984.375 567.578125 984.375 300 c 0
 984.375 32.421875 767.578125 -184.375 500 -184.375 c 0
 232.421875 -184.375 15.625 32.421875 15.625 300 c 0
 15.625 567.578125 232.421875 784.375 500 784.375 c 0xa8
EndSplineSet
Validated: 1
EndChar

StartChar: numbersign
Encoding: 35 35 35
Width: 1000
VWidth: 0
HStem: -184.375 21G<366.211 633.789> -184.375 21G<366.211 633.789> 764.375 20G<366.211 633.789> 764.375 20G<366.211 633.789>
VStem: 15.625 968.75<155.937 444.063>
LayerCount: 2
Fore
SplineSet
500 784.375 m 0xa8
 767.578125 784.375 984.375 567.578125 984.375 300 c 0
 984.375 32.421875 767.578125 -184.375 500 -184.375 c 0
 232.421875 -184.375 15.625 32.421875 15.625 300 c 0
 15.625 567.578125 232.421875 784.375 500 784.375 c 0xa8
EndSplineSet
Validated: 1
EndChar

StartChar: dollar
Encoding: 36 36 36
Width: 1000
VWidth: 0
HStem: -184.375 21G<366.211 633.789> -184.375 21G<366.211 633.789> 764.375 20G<366.211 633.789> 764.375 20G<366.211 633.789>
VStem: 15.625 968.75<155.937 444.063>
LayerCount: 2
Fore
SplineSet
500 784.375 m 0xa8
 767.578125 784.375 984.375 567.578125 984.375 300 c 0
 984.375 32.421875 767.578125 -184.375 500 -184.375 c 0
 232.421875 -184.375 15.625 32.421875 15.625 300 c 0
 15.625 567.578125 232.421875 784.375 500 784.375 c 0xa8
EndSplineSet
Validated: 1
EndChar

StartChar: percent
Encoding: 37 37 37
Width: 1000
VWidth: 0
HStem: -184.375 21G<366.211 633.789> -184.375 21G<366.211 633.789> 764.375 20G<366.211 633.789> 764.375 20G<366.211 633.789>
VStem: 15.625 968.75<155.937 444.063>
LayerCount: 2
Fore
SplineSet
500 784.375 m 0xa8
 767.578125 784.375 984.375 567.578125 984.375 300 c 0
 984.375 32.421875 767.578125 -184.375 500 -184.375 c 0
 232.421875 -184.375 15.625 32.421875 15.625 300 c 0
 15.625 567.578125 232.421875 784.375 500 784.375 c 0xa8
EndSplineSet
Validated: 1
EndChar

StartChar: ampersand
Encoding: 38 38 38
Width: 1000
VWidth: 0
HStem: -184.375 21G<366.211 633.789> -184.375 21G<366.211 633.789> 764.375 20G<366.211 633.789> 764.375 20G<366.211 633.789>
VStem: 15.625 968.75<155.937 444.063>
LayerCount: 2
Fore
SplineSet
500 784.375 m 0xa8
 767.578125 784.375 984.375 567.578125 984.375 300 c 0
 984.375 32.421875 767.578125 -184.375 500 -184.375 c 0
 232.421875 -184.375 15.625 32.421875 15.625 300 c 0
 15.625 567.578125 232.421875 784.375 500 784.375 c 0xa8
EndSplineSet
Validated: 1
EndChar

StartChar: quotesingle
Encoding: 39 39 39
Width: 1000
VWidth: 0
HStem: -184.375 21G<366.211 633.789> -184.375 21G<366.211 633.789> 764.375 20G<366.211 633.789> 764.375 20G<366.211 633.789>
VStem: 15.625 968.75<155.937 444.063>
LayerCount: 2
Fore
SplineSet
500 784.375 m 0xa8
 767.578125 784.375 984.375 567.578125 984.375 300 c 0
 984.375 32.421875 767.578125 -184.375 500 -184.375 c 0
 232.421875 -184.375 15.625 32.421875 15.625 300 c 0
 15.625 567.578125 232.421875 784.375 500 784.375 c 0xa8
EndSplineSet
Validated: 1
EndChar

StartChar: parenleft
Encoding: 40 40 40
Width: 1000
VWidth: 0
HStem: -184.375 21G<366.211 633.789> -184.375 21G<366.211 633.789> 764.375 20G<366.211 633.789> 764.375 20G<366.211 633.789>
VStem: 15.625 968.75<155.937 444.063>
LayerCount: 2
Fore
SplineSet
500 784.375 m 0xa8
 767.578125 784.375 984.375 567.578125 984.375 300 c 0
 984.375 32.421875 767.578125 -184.375 500 -184.375 c 0
 232.421875 -184.375 15.625 32.421875 15.625 300 c 0
 15.625 567.578125 232.421875 784.375 500 784.375 c 0xa8
EndSplineSet
Validated: 1
EndChar

StartChar: parenright
Encoding: 41 41 41
Width: 1000
VWidth: 0
HStem: -184.375 21G<366.211 633.789> -184.375 21G<366.211 633.789> 764.375 20G<366.211 633.789> 764.375 20G<366.211 633.789>
VStem: 15.625 968.75<155.937 444.063>
LayerCount: 2
Fore
SplineSet
500 784.375 m 0xa8
 767.578125 784.375 984.375 567.578125 984.375 300 c 0
 984.375 32.421875 767.578125 -184.375 500 -184.375 c 0
 232.421875 -184.375 15.625 32.421875 15.625 300 c 0
 15.625 567.578125 232.421875 784.375 500 784.375 c 0xa8
EndSplineSet
Validated: 1
EndChar

StartChar: asterisk
Encoding: 42 42 42
Width: 1000
VWidth: 0
HStem: -184.375 21G<366.211 633.789> -184.375 21G<366.211 633.789> 764.375 20G<366.211 633.789> 764.375 20G<366.211 633.789>
VStem: 15.625 968.75<155.937 444.063>
LayerCount: 2
Fore
SplineSet
500 784.375 m 0xa8
 767.578125 784.375 984.375 567.578125 984.375 300 c 0
 984.375 32.421875 767.578125 -184.375 500 -184.375 c 0
 232.421875 -184.375 15.625 32.421875 15.625 300 c 0
 15.625 567.578125 232.421875 784.375 500 784.375 c 0xa8
EndSplineSet
Validated: 1
EndChar

StartChar: plus
Encoding: 43 43 43
Width: 1000
VWidth: 0
HStem: -184.375 21G<366.211 633.789> -184.375 21G<366.211 633.789> 764.375 20G<366.211 633.789> 764.375 20G<366.211 633.789>
VStem: 15.625 968.75<155.937 444.063>
LayerCount: 2
Fore
SplineSet
500 784.375 m 0xa8
 767.578125 784.375 984.375 567.578125 984.375 300 c 0
 984.375 32.421875 767.578125 -184.375 500 -184.375 c 0
 232.421875 -184.375 15.625 32.421875 15.625 300 c 0
 15.625 567.578125 232.421875 784.375 500 784.375 c 0xa8
EndSplineSet
Validated: 1
EndChar

StartChar: comma
Encoding: 44 44 44
Width: 1000
VWidth: 0
HStem: -184.375 21G<366.211 633.789> -184.375 21G<366.211 633.789> 764.375 20G<366.211 633.789> 764.375 20G<366.211 633.789>
VStem: 15.625 968.75<155.937 444.063>
LayerCount: 2
Fore
SplineSet
500 784.375 m 0xa8
 767.578125 784.375 984.375 567.578125 984.375 300 c 0
 984.375 32.421875 767.578125 -184.375 500 -184.375 c 0
 232.421875 -184.375 15.625 32.421875 15.625 300 c 0
 15.625 567.578125 232.421875 784.375 500 784.375 c 0xa8
EndSplineSet
Validated: 1
EndChar

StartChar: hyphen
Encoding: 45 45 45
Width: 1000
VWidth: 0
HStem: -184.375 21G<366.211 633.789> -184.375 21G<366.211 633.789> 764.375 20G<366.211 633.789> 764.375 20G<366.211 633.789>
VStem: 15.625 968.75<155.937 444.063>
LayerCount: 2
Fore
SplineSet
500 784.375 m 0xa8
 767.578125 784.375 984.375 567.578125 984.375 300 c 0
 984.375 32.421875 767.578125 -184.375 500 -184.375 c 0
 232.421875 -184.375 15.625 32.421875 15.625 300 c 0
 15.625 567.578125 232.421875 784.375 500 784.375 c 0xa8
EndSplineSet
Validated: 1
EndChar

StartChar: period
Encoding: 46 46 46
Width: 1000
VWidth: 0
HStem: -184.375 21G<366.211 633.789> -184.375 21G<366.211 633.789> 764.375 20G<366.211 633.789> 764.375 20G<366.211 633.789>
VStem: 15.625 968.75<155.937 444.063>
LayerCount: 2
Fore
SplineSet
500 784.375 m 0xa8
 767.578125 784.375 984.375 567.578125 984.375 300 c 0
 984.375 32.421875 767.578125 -184.375 500 -184.375 c 0
 232.421875 -184.375 15.625 32.421875 15.625 300 c 0
 15.625 567.578125 232.421875 784.375 500 784.375 c 0xa8
EndSplineSet
Validated: 1
EndChar

StartChar: slash
Encoding: 47 47 47
Width: 1000
VWidth: 0
HStem: -184.375 21G<366.211 633.789> -184.375 21G<366.211 633.789> 764.375 20G<366.211 633.789> 764.375 20G<366.211 633.789>
VStem: 15.625 968.75<155.937 444.063>
LayerCount: 2
Fore
SplineSet
500 784.375 m 0xa8
 767.578125 784.375 984.375 567.578125 984.375 300 c 0
 984.375 32.421875 767.578125 -184.375 500 -184.375 c 0
 232.421875 -184.375 15.625 32.421875 15.625 300 c 0
 15.625 567.578125 232.421875 784.375 500 784.375 c 0xa8
EndSplineSet
Validated: 1
EndChar

StartChar: zero
Encoding: 48 48 48
Width: 1000
VWidth: 0
HStem: -184.375 21G<366.211 633.789> -184.375 21G<366.211 633.789> 764.375 20G<366.211 633.789> 764.375 20G<366.211 633.789>
VStem: 15.625 968.75<155.937 444.063>
LayerCount: 2
Fore
SplineSet
500 784.375 m 0xa8
 767.578125 784.375 984.375 567.578125 984.375 300 c 0
 984.375 32.421875 767.578125 -184.375 500 -184.375 c 0
 232.421875 -184.375 15.625 32.421875 15.625 300 c 0
 15.625 567.578125 232.421875 784.375 500 784.375 c 0xa8
EndSplineSet
Validated: 1
EndChar

StartChar: one
Encoding: 49 49 49
Width: 1000
VWidth: 0
HStem: -184.375 21G<366.211 633.789> -184.375 21G<366.211 633.789> 764.375 20G<366.211 633.789> 764.375 20G<366.211 633.789>
VStem: 15.625 968.75<155.937 444.063>
LayerCount: 2
Fore
SplineSet
500 784.375 m 0xa8
 767.578125 784.375 984.375 567.578125 984.375 300 c 0
 984.375 32.421875 767.578125 -184.375 500 -184.375 c 0
 232.421875 -184.375 15.625 32.421875 15.625 300 c 0
 15.625 567.578125 232.421875 784.375 500 784.375 c 0xa8
EndSplineSet
Validated: 1
EndChar

StartChar: two
Encoding: 50 50 50
Width: 1000
VWidth: 0
HStem: -184.375 21G<366.211 633.789> -184.375 21G<366.211 633.789> 764.375 20G<366.211 633.789> 764.375 20G<366.211 633.789>
VStem: 15.625 968.75<155.937 444.063>
LayerCount: 2
Fore
SplineSet
500 784.375 m 0xa8
 767.578125 784.375 984.375 567.578125 984.375 300 c 0
 984.375 32.421875 767.578125 -184.375 500 -184.375 c 0
 232.421875 -184.375 15.625 32.421875 15.625 300 c 0
 15.625 567.578125 232.421875 784.375 500 784.375 c 0xa8
EndSplineSet
Validated: 1
EndChar

StartChar: three
Encoding: 51 51 51
Width: 1000
VWidth: 0
HStem: -184.375 21G<366.211 633.789> -184.375 21G<366.211 633.789> 764.375 20G<366.211 633.789> 764.375 20G<366.211 633.789>
VStem: 15.625 968.75<155.937 444.063>
LayerCount: 2
Fore
SplineSet
500 784.375 m 0xa8
 767.578125 784.375 984.375 567.578125 984.375 300 c 0
 984.375 32.421875 767.578125 -184.375 500 -184.375 c 0
 232.421875 -184.375 15.625 32.421875 15.625 300 c 0
 15.625 567.578125 232.421875 784.375 500 784.375 c 0xa8
EndSplineSet
Validated: 1
EndChar

StartChar: four
Encoding: 52 52 52
Width: 1000
VWidth: 0
HStem: -184.375 21G<366.211 633.789> -184.375 21G<366.211 633.789> 764.375 20G<366.211 633.789> 764.375 20G<366.211 633.789>
VStem: 15.625 968.75<155.937 444.063>
LayerCount: 2
Fore
SplineSet
500 784.375 m 0xa8
 767.578125 784.375 984.375 567.578125 984.375 300 c 0
 984.375 32.421875 767.578125 -184.375 500 -184.375 c 0
 232.421875 -184.375 15.625 32.421875 15.625 300 c 0
 15.625 567.578125 232.421875 784.375 500 784.375 c 0xa8
EndSplineSet
Validated: 1
EndChar

StartChar: five
Encoding: 53 53 53
Width: 1000
VWidth: 0
HStem: -184.375 21G<366.211 633.789> -184.375 21G<366.211 633.789> 764.375 20G<366.211 633.789> 764.375 20G<366.211 633.789>
VStem: 15.625 968.75<155.937 444.063>
LayerCount: 2
Fore
SplineSet
500 784.375 m 0xa8
 767.578125 784.375 984.375 567.578125 984.375 300 c 0
 984.375 32.421875 767.578125 -184.375 500 -184.375 c 0
 232.421875 -184.375 15.625 32.421875 15.625 300 c 0
 15.625 567.578125 232.421875 784.375 500 784.375 c 0xa8
EndSplineSet
Validated: 1
EndChar

StartChar: six
Encoding: 54 54 54
Width: 1000
VWidth: 0
HStem: -184.375 21G<366.211 633.789> -184.375 21G<366.211 633.789> 764.375 20G<366.211 633.789> 764.375 20G<366.211 633.789>
VStem: 15.625 968.75<155.937 444.063>
LayerCount: 2
Fore
SplineSet
500 784.375 m 0xa8
 767.578125 784.375 984.375 567.578125 984.375 300 c 0
 984.375 32.421875 767.578125 -184.375 500 -184.375 c 0
 232.421875 -184.375 15.625 32.421875 15.625 300 c 0
 15.625 567.578125 232.421875 784.375 500 784.375 c 0xa8
EndSplineSet
Validated: 1
EndChar

StartChar: seven
Encoding: 55 55 55
Width: 1000
VWidth: 0
HStem: -184.375 21G<366.211 633.789> -184.375 21G<366.211 633.789> 764.375 20G<366.211 633.789> 764.375 20G<366.211 633.789>
VStem: 15.625 968.75<155.937 444.063>
LayerCount: 2
Fore
SplineSet
500 784.375 m 0xa8
 767.578125 784.375 984.375 567.578125 984.375 300 c 0
 984.375 32.421875 767.578125 -184.375 500 -184.375 c 0
 232.421875 -184.375 15.625 32.421875 15.625 300 c 0
 15.625 567.578125 232.421875 784.375 500 784.375 c 0xa8
EndSplineSet
Validated: 1
EndChar

StartChar: eight
Encoding: 56 56 56
Width: 1000
VWidth: 0
HStem: -184.375 21G<366.211 633.789> -184.375 21G<366.211 633.789> 764.375 20G<366.211 633.789> 764.375 20G<366.211 633.789>
VStem: 15.625 968.75<155.937 444.063>
LayerCount: 2
Fore
SplineSet
500 784.375 m 0xa8
 767.578125 784.375 984.375 567.578125 984.375 300 c 0
 984.375 32.421875 767.578125 -184.375 500 -184.375 c 0
 232.421875 -184.375 15.625 32.421875 15.625 300 c 0
 15.625 567.578125 232.421875 784.375 500 784.375 c 0xa8
EndSplineSet
Validated: 1
EndChar

StartChar: nine
Encoding: 57 57 57
Width: 1000
VWidth: 0
HStem: -184.375 21G<366.211 633.789> -184.375 21G<366.211 633.789> 764.375 20G<366.211 633.789> 764.375 20G<366.211 633.789>
VStem: 15.625 968.75<155.937 444.063>
LayerCount: 2
Fore
SplineSet
500 784.375 m 0xa8
 767.578125 784.375 984.375 567.578125 984.375 300 c 0
 984.375 32.421875 767.578125 -184.375 500 -184.375 c 0
 232.421875 -184.375 15.625 32.421875 15.625 300 c 0
 15.625 567.578125 232.421875 784.375 500 784.375 c 0xa8
EndSplineSet
Validated: 1
EndChar

StartChar: colon
Encoding: 58 58 58
Width: 1000
VWidth: 0
HStem: -184.375 21G<366.211 633.789> -184.375 21G<366.211 633.789> 764.375 20G<366.211 633.789> 764.375 20G<366.211 633.789>
VStem: 15.625 968.75<155.937 444.063>
LayerCount: 2
Fore
SplineSet
500 784.375 m 0xa8
 767.578125 784.375 984.375 567.578125 984.375 300 c 0
 984.375 32.421875 767.578125 -184.375 500 -184.375 c 0
 232.421875 -184.375 15.625 32.421875 15.625 300 c 0
 15.625 567.578125 232.421875 784.375 500 784.375 c 0xa8
EndSplineSet
Validated: 1
EndChar

StartChar: semicolon
Encoding: 59 59 59
Width: 1000
VWidth: 0
HStem: -184.375 21G<366.211 633.789> -184.375 21G<366.211 633.789> 764.375 20G<366.211 633.789> 764.375 20G<366.211 633.789>
VStem: 15.625 968.75<155.937 444.063>
LayerCount: 2
Fore
SplineSet
500 784.375 m 0xa8
 767.578125 784.375 984.375 567.578125 984.375 300 c 0
 984.375 32.421875 767.578125 -184.375 500 -184.375 c 0
 232.421875 -184.375 15.625 32.421875 15.625 300 c 0
 15.625 567.578125 232.421875 784.375 500 784.375 c 0xa8
EndSplineSet
Validated: 1
EndChar

StartChar: less
Encoding: 60 60 60
Width: 1000
VWidth: 0
HStem: -184.375 21G<366.211 633.789> -184.375 21G<366.211 633.789> 764.375 20G<366.211 633.789> 764.375 20G<366.211 633.789>
VStem: 15.625 968.75<155.937 444.063>
LayerCount: 2
Fore
SplineSet
500 784.375 m 0xa8
 767.578125 784.375 984.375 567.578125 984.375 300 c 0
 984.375 32.421875 767.578125 -184.375 500 -184.375 c 0
 232.421875 -184.375 15.625 32.421875 15.625 300 c 0
 15.625 567.578125 232.421875 784.375 500 784.375 c 0xa8
EndSplineSet
Validated: 1
EndChar

StartChar: equal
Encoding: 61 61 61
Width: 1000
VWidth: 0
HStem: -184.375 21G<366.211 633.789> -184.375 21G<366.211 633.789> 764.375 20G<366.211 633.789> 764.375 20G<366.211 633.789>
VStem: 15.625 968.75<155.937 444.063>
LayerCount: 2
Fore
SplineSet
500 784.375 m 0xa8
 767.578125 784.375 984.375 567.578125 984.375 300 c 0
 984.375 32.421875 767.578125 -184.375 500 -184.375 c 0
 232.421875 -184.375 15.625 32.421875 15.625 300 c 0
 15.625 567.578125 232.421875 784.375 500 784.375 c 0xa8
EndSplineSet
Validated: 1
EndChar

StartChar: greater
Encoding: 62 62 62
Width: 1000
VWidth: 0
HStem: -184.375 21G<366.211 633.789> -184.375 21G<366.211 633.789> 764.375 20G<366.211 633.789> 764.375 20G<366.211 633.789>
VStem: 15.625 968.75<155.937 444.063>
LayerCount: 2
Fore
SplineSet
500 784.375 m 0xa8
 767.578125 784.375 984.375 567.578125 984.375 300 c 0
 984.375 32.421875 767.578125 -184.375 500 -184.375 c 0
 232.421875 -184.375 15.625 32.421875 15.625 300 c 0
 15.625 567.578125 232.421875 784.375 500 784.375 c 0xa8
EndSplineSet
Validated: 1
EndChar

StartChar: question
Encoding: 63 63 63
Width: 1000
VWidth: 0
HStem: -184.375 21G<366.211 633.789> -184.375 21G<366.211 633.789> 764.375 20G<366.211 633.789> 764.375 20G<366.211 633.789>
VStem: 15.625 968.75<155.937 444.063>
LayerCount: 2
Fore
SplineSet
500 784.375 m 0xa8
 767.578125 784.375 984.375 567.578125 984.375 300 c 0
 984.375 32.421875 767.578125 -184.375 500 -184.375 c 0
 232.421875 -184.375 15.625 32.421875 15.625 300 c 0
 15.625 567.578125 232.421875 784.375 500 784.375 c 0xa8
EndSplineSet
Validated: 1
EndChar

StartChar: at
Encoding: 64 64 64
Width: 1000
VWidth: 0
HStem: -184.375 21G<366.211 633.789> -184.375 21G<366.211 633.789> 764.375 20G<366.211 633.789> 764.375 20G<366.211 633.789>
VStem: 15.625 968.75<155.937 444.063>
LayerCount: 2
Fore
SplineSet
500 784.375 m 0xa8
 767.578125 784.375 984.375 567.578125 984.375 300 c 0
 984.375 32.421875 767.578125 -184.375 500 -184.375 c 0
 232.421875 -184.375 15.625 32.421875 15.625 300 c 0
 15.625 567.578125 232.421875 784.375 500 784.375 c 0xa8
EndSplineSet
Validated: 1
EndChar

StartChar: A
Encoding: 65 65 65
Width: 1000
VWidth: 0
HStem: -184.375 21G<366.211 633.789> -184.375 21G<366.211 633.789> 764.375 20G<366.211 633.789> 764.375 20G<366.211 633.789>
VStem: 15.625 968.75<155.937 444.063>
LayerCount: 2
Fore
SplineSet
500 784.375 m 0xa8
 767.578125 784.375 984.375 567.578125 984.375 300 c 0
 984.375 32.421875 767.578125 -184.375 500 -184.375 c 0
 232.421875 -184.375 15.625 32.421875 15.625 300 c 0
 15.625 567.578125 232.421875 784.375 500 784.375 c 0xa8
EndSplineSet
Validated: 1
EndChar

StartChar: B
Encoding: 66 66 66
Width: 1000
VWidth: 0
HStem: -184.375 21G<366.211 633.789> -184.375 21G<366.211 633.789> 764.375 20G<366.211 633.789> 764.375 20G<366.211 633.789>
VStem: 15.625 968.75<155.937 444.063>
LayerCount: 2
Fore
SplineSet
500 784.375 m 0xa8
 767.578125 784.375 984.375 567.578125 984.375 300 c 0
 984.375 32.421875 767.578125 -184.375 500 -184.375 c 0
 232.421875 -184.375 15.625 32.421875 15.625 300 c 0
 15.625 567.578125 232.421875 784.375 500 784.375 c 0xa8
EndSplineSet
Validated: 1
EndChar

StartChar: C
Encoding: 67 67 67
Width: 1000
VWidth: 0
HStem: -184.375 21G<366.211 633.789> -184.375 21G<366.211 633.789> 764.375 20G<366.211 633.789> 764.375 20G<366.211 633.789>
VStem: 15.625 968.75<155.937 444.063>
LayerCount: 2
Fore
SplineSet
500 784.375 m 0xa8
 767.578125 784.375 984.375 567.578125 984.375 300 c 0
 984.375 32.421875 767.578125 -184.375 500 -184.375 c 0
 232.421875 -184.375 15.625 32.421875 15.625 300 c 0
 15.625 567.578125 232.421875 784.375 500 784.375 c 0xa8
EndSplineSet
Validated: 1
EndChar

StartChar: D
Encoding: 68 68 68
Width: 1000
VWidth: 0
HStem: -184.375 21G<366.211 633.789> -184.375 21G<366.211 633.789> 764.375 20G<366.211 633.789> 764.375 20G<366.211 633.789>
VStem: 15.625 968.75<155.937 444.063>
LayerCount: 2
Fore
SplineSet
500 784.375 m 0xa8
 767.578125 784.375 984.375 567.578125 984.375 300 c 0
 984.375 32.421875 767.578125 -184.375 500 -184.375 c 0
 232.421875 -184.375 15.625 32.421875 15.625 300 c 0
 15.625 567.578125 232.421875 784.375 500 784.375 c 0xa8
EndSplineSet
Validated: 1
EndChar

StartChar: E
Encoding: 69 69 69
Width: 1000
VWidth: 0
HStem: -184.375 21G<366.211 633.789> -184.375 21G<366.211 633.789> 764.375 20G<366.211 633.789> 764.375 20G<366.211 633.789>
VStem: 15.625 968.75<155.937 444.063>
LayerCount: 2
Fore
SplineSet
500 784.375 m 0xa8
 767.578125 784.375 984.375 567.578125 984.375 300 c 0
 984.375 32.421875 767.578125 -184.375 500 -184.375 c 0
 232.421875 -184.375 15.625 32.421875 15.625 300 c 0
 15.625 567.578125 232.421875 784.375 500 784.375 c 0xa8
EndSplineSet
Validated: 1
EndChar

StartChar: F
Encoding: 70 70 70
Width: 1000
VWidth: 0
HStem: -184.375 21G<366.211 633.789> -184.375 21G<366.211 633.789> 764.375 20G<366.211 633.789> 764.375 20G<366.211 633.789>
VStem: 15.625 968.75<155.937 444.063>
LayerCount: 2
Fore
SplineSet
500 784.375 m 0xa8
 767.578125 784.375 984.375 567.578125 984.375 300 c 0
 984.375 32.421875 767.578125 -184.375 500 -184.375 c 0
 232.421875 -184.375 15.625 32.421875 15.625 300 c 0
 15.625 567.578125 232.421875 784.375 500 784.375 c 0xa8
EndSplineSet
Validated: 1
EndChar

StartChar: G
Encoding: 71 71 71
Width: 1000
VWidth: 0
HStem: -184.375 21G<366.211 633.789> -184.375 21G<366.211 633.789> 764.375 20G<366.211 633.789> 764.375 20G<366.211 633.789>
VStem: 15.625 968.75<155.937 444.063>
LayerCount: 2
Fore
SplineSet
500 784.375 m 0xa8
 767.578125 784.375 984.375 567.578125 984.375 300 c 0
 984.375 32.421875 767.578125 -184.375 500 -184.375 c 0
 232.421875 -184.375 15.625 32.421875 15.625 300 c 0
 15.625 567.578125 232.421875 784.375 500 784.375 c 0xa8
EndSplineSet
Validated: 1
EndChar

StartChar: H
Encoding: 72 72 72
Width: 1000
VWidth: 0
HStem: -184.375 21G<366.211 633.789> -184.375 21G<366.211 633.789> 764.375 20G<366.211 633.789> 764.375 20G<366.211 633.789>
VStem: 15.625 968.75<155.937 444.063>
LayerCount: 2
Fore
SplineSet
500 784.375 m 0xa8
 767.578125 784.375 984.375 567.578125 984.375 300 c 0
 984.375 32.421875 767.578125 -184.375 500 -184.375 c 0
 232.421875 -184.375 15.625 32.421875 15.625 300 c 0
 15.625 567.578125 232.421875 784.375 500 784.375 c 0xa8
EndSplineSet
Validated: 1
EndChar

StartChar: I
Encoding: 73 73 73
Width: 1000
VWidth: 0
HStem: -184.375 21G<366.211 633.789> -184.375 21G<366.211 633.789> 764.375 20G<366.211 633.789> 764.375 20G<366.211 633.789>
VStem: 15.625 968.75<155.937 444.063>
LayerCount: 2
Fore
SplineSet
500 784.375 m 0xa8
 767.578125 784.375 984.375 567.578125 984.375 300 c 0
 984.375 32.421875 767.578125 -184.375 500 -184.375 c 0
 232.421875 -184.375 15.625 32.421875 15.625 300 c 0
 15.625 567.578125 232.421875 784.375 500 784.375 c 0xa8
EndSplineSet
Validated: 1
EndChar

StartChar: K
Encoding: 75 75 74
Width: 1000
VWidth: 0
HStem: -184.375 21G<366.211 633.789> -184.375 21G<366.211 633.789> 764.375 20G<366.211 633.789> 764.375 20G<366.211 633.789>
VStem: 15.625 968.75<155.937 444.063>
LayerCount: 2
Fore
SplineSet
500 784.375 m 0xa8
 767.578125 784.375 984.375 567.578125 984.375 300 c 0
 984.375 32.421875 767.578125 -184.375 500 -184.375 c 0
 232.421875 -184.375 15.625 32.421875 15.625 300 c 0
 15.625 567.578125 232.421875 784.375 500 784.375 c 0xa8
EndSplineSet
Validated: 1
EndChar

StartChar: J
Encoding: 74 74 75
Width: 1000
VWidth: 0
HStem: -184.375 21G<366.211 633.789> -184.375 21G<366.211 633.789> 764.375 20G<366.211 633.789> 764.375 20G<366.211 633.789>
VStem: 15.625 968.75<155.937 444.063>
LayerCount: 2
Fore
SplineSet
500 784.375 m 0xa8
 767.578125 784.375 984.375 567.578125 984.375 300 c 0
 984.375 32.421875 767.578125 -184.375 500 -184.375 c 0
 232.421875 -184.375 15.625 32.421875 15.625 300 c 0
 15.625 567.578125 232.421875 784.375 500 784.375 c 0xa8
EndSplineSet
Validated: 1
EndChar

StartChar: L
Encoding: 76 76 76
Width: 1000
VWidth: 0
HStem: -184.375 21G<366.211 633.789> -184.375 21G<366.211 633.789> 764.375 20G<366.211 633.789> 764.375 20G<366.211 633.789>
VStem: 15.625 968.75<155.937 444.063>
LayerCount: 2
Fore
SplineSet
500 784.375 m 0xa8
 767.578125 784.375 984.375 567.578125 984.375 300 c 0
 984.375 32.421875 767.578125 -184.375 500 -184.375 c 0
 232.421875 -184.375 15.625 32.421875 15.625 300 c 0
 15.625 567.578125 232.421875 784.375 500 784.375 c 0xa8
EndSplineSet
Validated: 1
EndChar

StartChar: M
Encoding: 77 77 77
Width: 1000
VWidth: 0
HStem: -184.375 21G<366.211 633.789> -184.375 21G<366.211 633.789> 764.375 20G<366.211 633.789> 764.375 20G<366.211 633.789>
VStem: 15.625 968.75<155.937 444.063>
LayerCount: 2
Fore
SplineSet
500 784.375 m 0xa8
 767.578125 784.375 984.375 567.578125 984.375 300 c 0
 984.375 32.421875 767.578125 -184.375 500 -184.375 c 0
 232.421875 -184.375 15.625 32.421875 15.625 300 c 0
 15.625 567.578125 232.421875 784.375 500 784.375 c 0xa8
EndSplineSet
Validated: 1
EndChar

StartChar: N
Encoding: 78 78 78
Width: 1000
VWidth: 0
HStem: -184.375 21G<366.211 633.789> -184.375 21G<366.211 633.789> 764.375 20G<366.211 633.789> 764.375 20G<366.211 633.789>
VStem: 15.625 968.75<155.937 444.063>
LayerCount: 2
Fore
SplineSet
500 784.375 m 0xa8
 767.578125 784.375 984.375 567.578125 984.375 300 c 0
 984.375 32.421875 767.578125 -184.375 500 -184.375 c 0
 232.421875 -184.375 15.625 32.421875 15.625 300 c 0
 15.625 567.578125 232.421875 784.375 500 784.375 c 0xa8
EndSplineSet
Validated: 1
EndChar

StartChar: u
Encoding: 117 117 79
Width: 1000
VWidth: 0
HStem: -184.375 21G<366.211 633.789> -184.375 21G<366.211 633.789> 764.375 20G<366.211 633.789> 764.375 20G<366.211 633.789>
VStem: 15.625 968.75<155.937 444.063>
LayerCount: 2
Fore
SplineSet
500 784.375 m 0xa8
 767.578125 784.375 984.375 567.578125 984.375 300 c 0
 984.375 32.421875 767.578125 -184.375 500 -184.375 c 0
 232.421875 -184.375 15.625 32.421875 15.625 300 c 0
 15.625 567.578125 232.421875 784.375 500 784.375 c 0xa8
EndSplineSet
Validated: 1
EndChar

StartChar: uni009C
Encoding: 156 156 80
Width: 1000
VWidth: 0
HStem: -184.375 21G<366.211 633.789> -184.375 21G<366.211 633.789> 764.375 20G<366.211 633.789> 764.375 20G<366.211 633.789>
VStem: 15.625 968.75<155.937 444.063>
LayerCount: 2
Fore
SplineSet
500 784.375 m 0xa8
 767.578125 784.375 984.375 567.578125 984.375 300 c 0
 984.375 32.421875 767.578125 -184.375 500 -184.375 c 0
 232.421875 -184.375 15.625 32.421875 15.625 300 c 0
 15.625 567.578125 232.421875 784.375 500 784.375 c 0xa8
EndSplineSet
Validated: 1
EndChar

StartChar: Atilde
Encoding: 195 195 81
Width: 1000
VWidth: 0
HStem: -184.375 21G<366.211 633.789> -184.375 21G<366.211 633.789> 764.375 20G<366.211 633.789> 764.375 20G<366.211 633.789>
VStem: 15.625 968.75<155.937 444.063>
LayerCount: 2
Fore
SplineSet
500 784.375 m 0xa8
 767.578125 784.375 984.375 567.578125 984.375 300 c 0
 984.375 32.421875 767.578125 -184.375 500 -184.375 c 0
 232.421875 -184.375 15.625 32.421875 15.625 300 c 0
 15.625 567.578125 232.421875 784.375 500 784.375 c 0xa8
EndSplineSet
Validated: 1
EndChar

StartChar: O
Encoding: 79 79 82
Width: 1000
VWidth: 0
HStem: -184.375 21G<366.211 633.789> -184.375 21G<366.211 633.789> 764.375 20G<366.211 633.789> 764.375 20G<366.211 633.789>
VStem: 15.625 968.75<155.937 444.063>
LayerCount: 2
Fore
SplineSet
500 784.375 m 0xa8
 767.578125 784.375 984.375 567.578125 984.375 300 c 0
 984.375 32.421875 767.578125 -184.375 500 -184.375 c 0
 232.421875 -184.375 15.625 32.421875 15.625 300 c 0
 15.625 567.578125 232.421875 784.375 500 784.375 c 0xa8
EndSplineSet
Validated: 1
EndChar

StartChar: v
Encoding: 118 118 83
Width: 1000
VWidth: 0
HStem: -184.375 21G<366.211 633.789> -184.375 21G<366.211 633.789> 764.375 20G<366.211 633.789> 764.375 20G<366.211 633.789>
VStem: 15.625 968.75<155.937 444.063>
LayerCount: 2
Fore
SplineSet
500 784.375 m 0xa8
 767.578125 784.375 984.375 567.578125 984.375 300 c 0
 984.375 32.421875 767.578125 -184.375 500 -184.375 c 0
 232.421875 -184.375 15.625 32.421875 15.625 300 c 0
 15.625 567.578125 232.421875 784.375 500 784.375 c 0xa8
EndSplineSet
Validated: 1
EndChar

StartChar: uni009D
Encoding: 157 157 84
Width: 1000
VWidth: 0
HStem: -184.375 21G<366.211 633.789> -184.375 21G<366.211 633.789> 764.375 20G<366.211 633.789> 764.375 20G<366.211 633.789>
VStem: 15.625 968.75<155.937 444.063>
LayerCount: 2
Fore
SplineSet
500 784.375 m 0xa8
 767.578125 784.375 984.375 567.578125 984.375 300 c 0
 984.375 32.421875 767.578125 -184.375 500 -184.375 c 0
 232.421875 -184.375 15.625 32.421875 15.625 300 c 0
 15.625 567.578125 232.421875 784.375 500 784.375 c 0xa8
EndSplineSet
Validated: 1
EndChar

StartChar: Adieresis
Encoding: 196 196 85
Width: 1000
VWidth: 0
HStem: -184.375 21G<366.211 633.789> -184.375 21G<366.211 633.789> 764.375 20G<366.211 633.789> 764.375 20G<366.211 633.789>
VStem: 15.625 968.75<155.937 444.063>
LayerCount: 2
Fore
SplineSet
500 784.375 m 0xa8
 767.578125 784.375 984.375 567.578125 984.375 300 c 0
 984.375 32.421875 767.578125 -184.375 500 -184.375 c 0
 232.421875 -184.375 15.625 32.421875 15.625 300 c 0
 15.625 567.578125 232.421875 784.375 500 784.375 c 0xa8
EndSplineSet
Validated: 1
EndChar

StartChar: P
Encoding: 80 80 86
Width: 1000
VWidth: 0
HStem: -184.375 21G<366.211 633.789> -184.375 21G<366.211 633.789> 764.375 20G<366.211 633.789> 764.375 20G<366.211 633.789>
VStem: 15.625 968.75<155.937 444.063>
LayerCount: 2
Fore
SplineSet
500 784.375 m 0xa8
 767.578125 784.375 984.375 567.578125 984.375 300 c 0
 984.375 32.421875 767.578125 -184.375 500 -184.375 c 0
 232.421875 -184.375 15.625 32.421875 15.625 300 c 0
 15.625 567.578125 232.421875 784.375 500 784.375 c 0xa8
EndSplineSet
Validated: 1
EndChar

StartChar: w
Encoding: 119 119 87
Width: 1000
VWidth: 0
HStem: -184.375 21G<366.211 633.789> -184.375 21G<366.211 633.789> 764.375 20G<366.211 633.789> 764.375 20G<366.211 633.789>
VStem: 15.625 968.75<155.937 444.063>
LayerCount: 2
Fore
SplineSet
500 784.375 m 0xa8
 767.578125 784.375 984.375 567.578125 984.375 300 c 0
 984.375 32.421875 767.578125 -184.375 500 -184.375 c 0
 232.421875 -184.375 15.625 32.421875 15.625 300 c 0
 15.625 567.578125 232.421875 784.375 500 784.375 c 0xa8
EndSplineSet
Validated: 1
EndChar

StartChar: uni009E
Encoding: 158 158 88
Width: 1000
VWidth: 0
HStem: -184.375 21G<366.211 633.789> -184.375 21G<366.211 633.789> 764.375 20G<366.211 633.789> 764.375 20G<366.211 633.789>
VStem: 15.625 968.75<155.937 444.063>
LayerCount: 2
Fore
SplineSet
500 784.375 m 0xa8
 767.578125 784.375 984.375 567.578125 984.375 300 c 0
 984.375 32.421875 767.578125 -184.375 500 -184.375 c 0
 232.421875 -184.375 15.625 32.421875 15.625 300 c 0
 15.625 567.578125 232.421875 784.375 500 784.375 c 0xa8
EndSplineSet
Validated: 1
EndChar

StartChar: Aring
Encoding: 197 197 89
Width: 1000
VWidth: 0
HStem: -184.375 21G<366.211 633.789> -184.375 21G<366.211 633.789> 764.375 20G<366.211 633.789> 764.375 20G<366.211 633.789>
VStem: 15.625 968.75<155.937 444.063>
LayerCount: 2
Fore
SplineSet
500 784.375 m 0xa8
 767.578125 784.375 984.375 567.578125 984.375 300 c 0
 984.375 32.421875 767.578125 -184.375 500 -184.375 c 0
 232.421875 -184.375 15.625 32.421875 15.625 300 c 0
 15.625 567.578125 232.421875 784.375 500 784.375 c 0xa8
EndSplineSet
Validated: 1
EndChar

StartChar: Q
Encoding: 81 81 90
Width: 1000
VWidth: 0
HStem: -184.375 21G<366.211 633.789> -184.375 21G<366.211 633.789> 764.375 20G<366.211 633.789> 764.375 20G<366.211 633.789>
VStem: 15.625 968.75<155.937 444.063>
LayerCount: 2
Fore
SplineSet
500 784.375 m 0xa8
 767.578125 784.375 984.375 567.578125 984.375 300 c 0
 984.375 32.421875 767.578125 -184.375 500 -184.375 c 0
 232.421875 -184.375 15.625 32.421875 15.625 300 c 0
 15.625 567.578125 232.421875 784.375 500 784.375 c 0xa8
EndSplineSet
Validated: 1
EndChar

StartChar: x
Encoding: 120 120 91
Width: 1000
VWidth: 0
HStem: -184.375 21G<366.211 633.789> -184.375 21G<366.211 633.789> 764.375 20G<366.211 633.789> 764.375 20G<366.211 633.789>
VStem: 15.625 968.75<155.937 444.063>
LayerCount: 2
Fore
SplineSet
500 784.375 m 0xa8
 767.578125 784.375 984.375 567.578125 984.375 300 c 0
 984.375 32.421875 767.578125 -184.375 500 -184.375 c 0
 232.421875 -184.375 15.625 32.421875 15.625 300 c 0
 15.625 567.578125 232.421875 784.375 500 784.375 c 0xa8
EndSplineSet
Validated: 1
EndChar

StartChar: uni009F
Encoding: 159 159 92
Width: 1000
VWidth: 0
HStem: -184.375 21G<366.211 633.789> -184.375 21G<366.211 633.789> 764.375 20G<366.211 633.789> 764.375 20G<366.211 633.789>
VStem: 15.625 968.75<155.937 444.063>
LayerCount: 2
Fore
SplineSet
500 784.375 m 0xa8
 767.578125 784.375 984.375 567.578125 984.375 300 c 0
 984.375 32.421875 767.578125 -184.375 500 -184.375 c 0
 232.421875 -184.375 15.625 32.421875 15.625 300 c 0
 15.625 567.578125 232.421875 784.375 500 784.375 c 0xa8
EndSplineSet
Validated: 1
EndChar

StartChar: AE
Encoding: 198 198 93
Width: 1000
VWidth: 0
HStem: -184.375 21G<366.211 633.789> -184.375 21G<366.211 633.789> 764.375 20G<366.211 633.789> 764.375 20G<366.211 633.789>
VStem: 15.625 968.75<155.937 444.063>
LayerCount: 2
Fore
SplineSet
500 784.375 m 0xa8
 767.578125 784.375 984.375 567.578125 984.375 300 c 0
 984.375 32.421875 767.578125 -184.375 500 -184.375 c 0
 232.421875 -184.375 15.625 32.421875 15.625 300 c 0
 15.625 567.578125 232.421875 784.375 500 784.375 c 0xa8
EndSplineSet
Validated: 1
EndChar

StartChar: R
Encoding: 82 82 94
Width: 1000
VWidth: 0
HStem: -184.375 21G<366.211 633.789> -184.375 21G<366.211 633.789> 764.375 20G<366.211 633.789> 764.375 20G<366.211 633.789>
VStem: 15.625 968.75<155.937 444.063>
LayerCount: 2
Fore
SplineSet
500 784.375 m 0xa8
 767.578125 784.375 984.375 567.578125 984.375 300 c 0
 984.375 32.421875 767.578125 -184.375 500 -184.375 c 0
 232.421875 -184.375 15.625 32.421875 15.625 300 c 0
 15.625 567.578125 232.421875 784.375 500 784.375 c 0xa8
EndSplineSet
Validated: 1
EndChar

StartChar: y
Encoding: 121 121 95
Width: 1000
VWidth: 0
HStem: -184.375 21G<366.211 633.789> -184.375 21G<366.211 633.789> 764.375 20G<366.211 633.789> 764.375 20G<366.211 633.789>
VStem: 15.625 968.75<155.937 444.063>
LayerCount: 2
Fore
SplineSet
500 784.375 m 0xa8
 767.578125 784.375 984.375 567.578125 984.375 300 c 0
 984.375 32.421875 767.578125 -184.375 500 -184.375 c 0
 232.421875 -184.375 15.625 32.421875 15.625 300 c 0
 15.625 567.578125 232.421875 784.375 500 784.375 c 0xa8
EndSplineSet
Validated: 1
EndChar

StartChar: uni00A0
Encoding: 160 160 96
Width: 1000
VWidth: 0
HStem: -184.375 21G<366.211 633.789> -184.375 21G<366.211 633.789> 764.375 20G<366.211 633.789> 764.375 20G<366.211 633.789>
VStem: 15.625 968.75<155.937 444.063>
LayerCount: 2
Fore
SplineSet
500 784.375 m 0xa8
 767.578125 784.375 984.375 567.578125 984.375 300 c 0
 984.375 32.421875 767.578125 -184.375 500 -184.375 c 0
 232.421875 -184.375 15.625 32.421875 15.625 300 c 0
 15.625 567.578125 232.421875 784.375 500 784.375 c 0xa8
EndSplineSet
Validated: 1
EndChar

StartChar: Ccedilla
Encoding: 199 199 97
Width: 1000
VWidth: 0
HStem: -184.375 21G<366.211 633.789> -184.375 21G<366.211 633.789> 764.375 20G<366.211 633.789> 764.375 20G<366.211 633.789>
VStem: 15.625 968.75<155.937 444.063>
LayerCount: 2
Fore
SplineSet
500 784.375 m 0xa8
 767.578125 784.375 984.375 567.578125 984.375 300 c 0
 984.375 32.421875 767.578125 -184.375 500 -184.375 c 0
 232.421875 -184.375 15.625 32.421875 15.625 300 c 0
 15.625 567.578125 232.421875 784.375 500 784.375 c 0xa8
EndSplineSet
Validated: 1
EndChar

StartChar: S
Encoding: 83 83 98
Width: 1000
VWidth: 0
HStem: -184.375 21G<366.211 633.789> -184.375 21G<366.211 633.789> 764.375 20G<366.211 633.789> 764.375 20G<366.211 633.789>
VStem: 15.625 968.75<155.937 444.063>
LayerCount: 2
Fore
SplineSet
500 784.375 m 0xa8
 767.578125 784.375 984.375 567.578125 984.375 300 c 0
 984.375 32.421875 767.578125 -184.375 500 -184.375 c 0
 232.421875 -184.375 15.625 32.421875 15.625 300 c 0
 15.625 567.578125 232.421875 784.375 500 784.375 c 0xa8
EndSplineSet
Validated: 1
EndChar

StartChar: z
Encoding: 122 122 99
Width: 1000
VWidth: 0
HStem: -184.375 21G<366.211 633.789> -184.375 21G<366.211 633.789> 764.375 20G<366.211 633.789> 764.375 20G<366.211 633.789>
VStem: 15.625 968.75<155.937 444.063>
LayerCount: 2
Fore
SplineSet
500 784.375 m 0xa8
 767.578125 784.375 984.375 567.578125 984.375 300 c 0
 984.375 32.421875 767.578125 -184.375 500 -184.375 c 0
 232.421875 -184.375 15.625 32.421875 15.625 300 c 0
 15.625 567.578125 232.421875 784.375 500 784.375 c 0xa8
EndSplineSet
Validated: 1
EndChar

StartChar: exclamdown
Encoding: 161 161 100
Width: 1000
VWidth: 0
HStem: -184.375 21G<366.211 633.789> -184.375 21G<366.211 633.789> 764.375 20G<366.211 633.789> 764.375 20G<366.211 633.789>
VStem: 15.625 968.75<155.937 444.063>
LayerCount: 2
Fore
SplineSet
500 784.375 m 0xa8
 767.578125 784.375 984.375 567.578125 984.375 300 c 0
 984.375 32.421875 767.578125 -184.375 500 -184.375 c 0
 232.421875 -184.375 15.625 32.421875 15.625 300 c 0
 15.625 567.578125 232.421875 784.375 500 784.375 c 0xa8
EndSplineSet
Validated: 1
EndChar

StartChar: Egrave
Encoding: 200 200 101
Width: 1000
VWidth: 0
HStem: -184.375 21G<366.211 633.789> -184.375 21G<366.211 633.789> 764.375 20G<366.211 633.789> 764.375 20G<366.211 633.789>
VStem: 15.625 968.75<155.937 444.063>
LayerCount: 2
Fore
SplineSet
500 784.375 m 0xa8
 767.578125 784.375 984.375 567.578125 984.375 300 c 0
 984.375 32.421875 767.578125 -184.375 500 -184.375 c 0
 232.421875 -184.375 15.625 32.421875 15.625 300 c 0
 15.625 567.578125 232.421875 784.375 500 784.375 c 0xa8
EndSplineSet
Validated: 1
EndChar

StartChar: T
Encoding: 84 84 102
Width: 1000
VWidth: 0
HStem: -184.375 21G<366.211 633.789> -184.375 21G<366.211 633.789> 764.375 20G<366.211 633.789> 764.375 20G<366.211 633.789>
VStem: 15.625 968.75<155.937 444.063>
LayerCount: 2
Fore
SplineSet
500 784.375 m 0xa8
 767.578125 784.375 984.375 567.578125 984.375 300 c 0
 984.375 32.421875 767.578125 -184.375 500 -184.375 c 0
 232.421875 -184.375 15.625 32.421875 15.625 300 c 0
 15.625 567.578125 232.421875 784.375 500 784.375 c 0xa8
EndSplineSet
Validated: 1
EndChar

StartChar: braceleft
Encoding: 123 123 103
Width: 1000
VWidth: 0
HStem: -184.375 21G<366.211 633.789> -184.375 21G<366.211 633.789> 764.375 20G<366.211 633.789> 764.375 20G<366.211 633.789>
VStem: 15.625 968.75<155.937 444.063>
LayerCount: 2
Fore
SplineSet
500 784.375 m 0xa8
 767.578125 784.375 984.375 567.578125 984.375 300 c 0
 984.375 32.421875 767.578125 -184.375 500 -184.375 c 0
 232.421875 -184.375 15.625 32.421875 15.625 300 c 0
 15.625 567.578125 232.421875 784.375 500 784.375 c 0xa8
EndSplineSet
Validated: 1
EndChar

StartChar: cent
Encoding: 162 162 104
Width: 1000
VWidth: 0
HStem: -184.375 21G<366.211 633.789> -184.375 21G<366.211 633.789> 764.375 20G<366.211 633.789> 764.375 20G<366.211 633.789>
VStem: 15.625 968.75<155.937 444.063>
LayerCount: 2
Fore
SplineSet
500 784.375 m 0xa8
 767.578125 784.375 984.375 567.578125 984.375 300 c 0
 984.375 32.421875 767.578125 -184.375 500 -184.375 c 0
 232.421875 -184.375 15.625 32.421875 15.625 300 c 0
 15.625 567.578125 232.421875 784.375 500 784.375 c 0xa8
EndSplineSet
Validated: 1
EndChar

StartChar: Eacute
Encoding: 201 201 105
Width: 1000
VWidth: 0
HStem: -184.375 21G<366.211 633.789> -184.375 21G<366.211 633.789> 764.375 20G<366.211 633.789> 764.375 20G<366.211 633.789>
VStem: 15.625 968.75<155.937 444.063>
LayerCount: 2
Fore
SplineSet
500 784.375 m 0xa8
 767.578125 784.375 984.375 567.578125 984.375 300 c 0
 984.375 32.421875 767.578125 -184.375 500 -184.375 c 0
 232.421875 -184.375 15.625 32.421875 15.625 300 c 0
 15.625 567.578125 232.421875 784.375 500 784.375 c 0xa8
EndSplineSet
Validated: 1
EndChar

StartChar: U
Encoding: 85 85 106
Width: 1000
VWidth: 0
HStem: -184.375 21G<366.211 633.789> -184.375 21G<366.211 633.789> 764.375 20G<366.211 633.789> 764.375 20G<366.211 633.789>
VStem: 15.625 968.75<155.937 444.063>
LayerCount: 2
Fore
SplineSet
500 784.375 m 0xa8
 767.578125 784.375 984.375 567.578125 984.375 300 c 0
 984.375 32.421875 767.578125 -184.375 500 -184.375 c 0
 232.421875 -184.375 15.625 32.421875 15.625 300 c 0
 15.625 567.578125 232.421875 784.375 500 784.375 c 0xa8
EndSplineSet
Validated: 1
EndChar

StartChar: bar
Encoding: 124 124 107
Width: 1000
VWidth: 0
HStem: -184.375 21G<366.211 633.789> -184.375 21G<366.211 633.789> 764.375 20G<366.211 633.789> 764.375 20G<366.211 633.789>
VStem: 15.625 968.75<155.937 444.063>
LayerCount: 2
Fore
SplineSet
500 784.375 m 0xa8
 767.578125 784.375 984.375 567.578125 984.375 300 c 0
 984.375 32.421875 767.578125 -184.375 500 -184.375 c 0
 232.421875 -184.375 15.625 32.421875 15.625 300 c 0
 15.625 567.578125 232.421875 784.375 500 784.375 c 0xa8
EndSplineSet
Validated: 1
EndChar

StartChar: sterling
Encoding: 163 163 108
Width: 1000
VWidth: 0
HStem: -184.375 21G<366.211 633.789> -184.375 21G<366.211 633.789> 764.375 20G<366.211 633.789> 764.375 20G<366.211 633.789>
VStem: 15.625 968.75<155.937 444.063>
LayerCount: 2
Fore
SplineSet
500 784.375 m 0xa8
 767.578125 784.375 984.375 567.578125 984.375 300 c 0
 984.375 32.421875 767.578125 -184.375 500 -184.375 c 0
 232.421875 -184.375 15.625 32.421875 15.625 300 c 0
 15.625 567.578125 232.421875 784.375 500 784.375 c 0xa8
EndSplineSet
Validated: 1
EndChar

StartChar: Ecircumflex
Encoding: 202 202 109
Width: 1000
VWidth: 0
HStem: -184.375 21G<366.211 633.789> -184.375 21G<366.211 633.789> 764.375 20G<366.211 633.789> 764.375 20G<366.211 633.789>
VStem: 15.625 968.75<155.937 444.063>
LayerCount: 2
Fore
SplineSet
500 784.375 m 0xa8
 767.578125 784.375 984.375 567.578125 984.375 300 c 0
 984.375 32.421875 767.578125 -184.375 500 -184.375 c 0
 232.421875 -184.375 15.625 32.421875 15.625 300 c 0
 15.625 567.578125 232.421875 784.375 500 784.375 c 0xa8
EndSplineSet
Validated: 1
EndChar

StartChar: V
Encoding: 86 86 110
Width: 1000
VWidth: 0
HStem: -184.375 21G<366.211 633.789> -184.375 21G<366.211 633.789> 764.375 20G<366.211 633.789> 764.375 20G<366.211 633.789>
VStem: 15.625 968.75<155.937 444.063>
LayerCount: 2
Fore
SplineSet
500 784.375 m 0xa8
 767.578125 784.375 984.375 567.578125 984.375 300 c 0
 984.375 32.421875 767.578125 -184.375 500 -184.375 c 0
 232.421875 -184.375 15.625 32.421875 15.625 300 c 0
 15.625 567.578125 232.421875 784.375 500 784.375 c 0xa8
EndSplineSet
Validated: 1
EndChar

StartChar: braceright
Encoding: 125 125 111
Width: 1000
VWidth: 0
HStem: -184.375 21G<366.211 633.789> -184.375 21G<366.211 633.789> 764.375 20G<366.211 633.789> 764.375 20G<366.211 633.789>
VStem: 15.625 968.75<155.937 444.063>
LayerCount: 2
Fore
SplineSet
500 784.375 m 0xa8
 767.578125 784.375 984.375 567.578125 984.375 300 c 0
 984.375 32.421875 767.578125 -184.375 500 -184.375 c 0
 232.421875 -184.375 15.625 32.421875 15.625 300 c 0
 15.625 567.578125 232.421875 784.375 500 784.375 c 0xa8
EndSplineSet
Validated: 1
EndChar

StartChar: currency
Encoding: 164 164 112
Width: 1000
VWidth: 0
HStem: -184.375 21G<366.211 633.789> -184.375 21G<366.211 633.789> 764.375 20G<366.211 633.789> 764.375 20G<366.211 633.789>
VStem: 15.625 968.75<155.937 444.063>
LayerCount: 2
Fore
SplineSet
500 784.375 m 0xa8
 767.578125 784.375 984.375 567.578125 984.375 300 c 0
 984.375 32.421875 767.578125 -184.375 500 -184.375 c 0
 232.421875 -184.375 15.625 32.421875 15.625 300 c 0
 15.625 567.578125 232.421875 784.375 500 784.375 c 0xa8
EndSplineSet
Validated: 1
EndChar

StartChar: Edieresis
Encoding: 203 203 113
Width: 1000
VWidth: 0
HStem: -184.375 21G<366.211 633.789> -184.375 21G<366.211 633.789> 764.375 20G<366.211 633.789> 764.375 20G<366.211 633.789>
VStem: 15.625 968.75<155.937 444.063>
LayerCount: 2
Fore
SplineSet
500 784.375 m 0xa8
 767.578125 784.375 984.375 567.578125 984.375 300 c 0
 984.375 32.421875 767.578125 -184.375 500 -184.375 c 0
 232.421875 -184.375 15.625 32.421875 15.625 300 c 0
 15.625 567.578125 232.421875 784.375 500 784.375 c 0xa8
EndSplineSet
Validated: 1
EndChar

StartChar: W
Encoding: 87 87 114
Width: 1000
VWidth: 0
HStem: -184.375 21G<366.211 633.789> -184.375 21G<366.211 633.789> 764.375 20G<366.211 633.789> 764.375 20G<366.211 633.789>
VStem: 15.625 968.75<155.937 444.063>
LayerCount: 2
Fore
SplineSet
500 784.375 m 0xa8
 767.578125 784.375 984.375 567.578125 984.375 300 c 0
 984.375 32.421875 767.578125 -184.375 500 -184.375 c 0
 232.421875 -184.375 15.625 32.421875 15.625 300 c 0
 15.625 567.578125 232.421875 784.375 500 784.375 c 0xa8
EndSplineSet
Validated: 1
EndChar

StartChar: asciitilde
Encoding: 126 126 115
Width: 1000
VWidth: 0
HStem: -184.375 21G<366.211 633.789> -184.375 21G<366.211 633.789> 764.375 20G<366.211 633.789> 764.375 20G<366.211 633.789>
VStem: 15.625 968.75<155.937 444.063>
LayerCount: 2
Fore
SplineSet
500 784.375 m 0xa8
 767.578125 784.375 984.375 567.578125 984.375 300 c 0
 984.375 32.421875 767.578125 -184.375 500 -184.375 c 0
 232.421875 -184.375 15.625 32.421875 15.625 300 c 0
 15.625 567.578125 232.421875 784.375 500 784.375 c 0xa8
EndSplineSet
Validated: 1
EndChar

StartChar: yen
Encoding: 165 165 116
Width: 1000
VWidth: 0
HStem: -184.375 21G<366.211 633.789> -184.375 21G<366.211 633.789> 764.375 20G<366.211 633.789> 764.375 20G<366.211 633.789>
VStem: 15.625 968.75<155.937 444.063>
LayerCount: 2
Fore
SplineSet
500 784.375 m 0xa8
 767.578125 784.375 984.375 567.578125 984.375 300 c 0
 984.375 32.421875 767.578125 -184.375 500 -184.375 c 0
 232.421875 -184.375 15.625 32.421875 15.625 300 c 0
 15.625 567.578125 232.421875 784.375 500 784.375 c 0xa8
EndSplineSet
Validated: 1
EndChar

StartChar: Igrave
Encoding: 204 204 117
Width: 1000
VWidth: 0
HStem: -184.375 21G<366.211 633.789> -184.375 21G<366.211 633.789> 764.375 20G<366.211 633.789> 764.375 20G<366.211 633.789>
VStem: 15.625 968.75<155.937 444.063>
LayerCount: 2
Fore
SplineSet
500 784.375 m 0xa8
 767.578125 784.375 984.375 567.578125 984.375 300 c 0
 984.375 32.421875 767.578125 -184.375 500 -184.375 c 0
 232.421875 -184.375 15.625 32.421875 15.625 300 c 0
 15.625 567.578125 232.421875 784.375 500 784.375 c 0xa8
EndSplineSet
Validated: 1
EndChar

StartChar: ecircumflex
Encoding: 234 234 118
Width: 1000
VWidth: 0
HStem: -184.375 21G<366.211 633.789> -184.375 21G<366.211 633.789> 764.375 20G<366.211 633.789> 764.375 20G<366.211 633.789>
VStem: 15.625 968.75<155.937 444.063>
LayerCount: 2
Fore
SplineSet
500 784.375 m 0xa8
 767.578125 784.375 984.375 567.578125 984.375 300 c 0
 984.375 32.421875 767.578125 -184.375 500 -184.375 c 0
 232.421875 -184.375 15.625 32.421875 15.625 300 c 0
 15.625 567.578125 232.421875 784.375 500 784.375 c 0xa8
EndSplineSet
Validated: 1
EndChar

StartChar: edieresis
Encoding: 235 235 119
Width: 1000
VWidth: 0
HStem: -184.375 21G<366.211 633.789> -184.375 21G<366.211 633.789> 764.375 20G<366.211 633.789> 764.375 20G<366.211 633.789>
VStem: 15.625 968.75<155.937 444.063>
LayerCount: 2
Fore
SplineSet
500 784.375 m 0xa8
 767.578125 784.375 984.375 567.578125 984.375 300 c 0
 984.375 32.421875 767.578125 -184.375 500 -184.375 c 0
 232.421875 -184.375 15.625 32.421875 15.625 300 c 0
 15.625 567.578125 232.421875 784.375 500 784.375 c 0xa8
EndSplineSet
Validated: 1
EndChar

StartChar: igrave
Encoding: 236 236 120
Width: 1000
VWidth: 0
HStem: -184.375 21G<366.211 633.789> -184.375 21G<366.211 633.789> 764.375 20G<366.211 633.789> 764.375 20G<366.211 633.789>
VStem: 15.625 968.75<155.937 444.063>
LayerCount: 2
Fore
SplineSet
500 784.375 m 0xa8
 767.578125 784.375 984.375 567.578125 984.375 300 c 0
 984.375 32.421875 767.578125 -184.375 500 -184.375 c 0
 232.421875 -184.375 15.625 32.421875 15.625 300 c 0
 15.625 567.578125 232.421875 784.375 500 784.375 c 0xa8
EndSplineSet
Validated: 1
EndChar

StartChar: iacute
Encoding: 237 237 121
Width: 1000
VWidth: 0
HStem: -184.375 21G<366.211 633.789> -184.375 21G<366.211 633.789> 764.375 20G<366.211 633.789> 764.375 20G<366.211 633.789>
VStem: 15.625 968.75<155.937 444.063>
LayerCount: 2
Fore
SplineSet
500 784.375 m 0xa8
 767.578125 784.375 984.375 567.578125 984.375 300 c 0
 984.375 32.421875 767.578125 -184.375 500 -184.375 c 0
 232.421875 -184.375 15.625 32.421875 15.625 300 c 0
 15.625 567.578125 232.421875 784.375 500 784.375 c 0xa8
EndSplineSet
Validated: 1
EndChar

StartChar: icircumflex
Encoding: 238 238 122
Width: 1000
VWidth: 0
HStem: -184.375 21G<366.211 633.789> -184.375 21G<366.211 633.789> 764.375 20G<366.211 633.789> 764.375 20G<366.211 633.789>
VStem: 15.625 968.75<155.937 444.063>
LayerCount: 2
Fore
SplineSet
500 784.375 m 0xa8
 767.578125 784.375 984.375 567.578125 984.375 300 c 0
 984.375 32.421875 767.578125 -184.375 500 -184.375 c 0
 232.421875 -184.375 15.625 32.421875 15.625 300 c 0
 15.625 567.578125 232.421875 784.375 500 784.375 c 0xa8
EndSplineSet
Validated: 1
EndChar

StartChar: idieresis
Encoding: 239 239 123
Width: 1000
VWidth: 0
HStem: -184.375 21G<366.211 633.789> -184.375 21G<366.211 633.789> 764.375 20G<366.211 633.789> 764.375 20G<366.211 633.789>
VStem: 15.625 968.75<155.937 444.063>
LayerCount: 2
Fore
SplineSet
500 784.375 m 0xa8
 767.578125 784.375 984.375 567.578125 984.375 300 c 0
 984.375 32.421875 767.578125 -184.375 500 -184.375 c 0
 232.421875 -184.375 15.625 32.421875 15.625 300 c 0
 15.625 567.578125 232.421875 784.375 500 784.375 c 0xa8
EndSplineSet
Validated: 1
EndChar

StartChar: eth
Encoding: 240 240 124
Width: 1000
VWidth: 0
HStem: -184.375 21G<366.211 633.789> -184.375 21G<366.211 633.789> 764.375 20G<366.211 633.789> 764.375 20G<366.211 633.789>
VStem: 15.625 968.75<155.937 444.063>
LayerCount: 2
Fore
SplineSet
500 784.375 m 0xa8
 767.578125 784.375 984.375 567.578125 984.375 300 c 0
 984.375 32.421875 767.578125 -184.375 500 -184.375 c 0
 232.421875 -184.375 15.625 32.421875 15.625 300 c 0
 15.625 567.578125 232.421875 784.375 500 784.375 c 0xa8
EndSplineSet
Validated: 1
EndChar

StartChar: ntilde
Encoding: 241 241 125
Width: 1000
VWidth: 0
HStem: -184.375 21G<366.211 633.789> -184.375 21G<366.211 633.789> 764.375 20G<366.211 633.789> 764.375 20G<366.211 633.789>
VStem: 15.625 968.75<155.937 444.063>
LayerCount: 2
Fore
SplineSet
500 784.375 m 0xa8
 767.578125 784.375 984.375 567.578125 984.375 300 c 0
 984.375 32.421875 767.578125 -184.375 500 -184.375 c 0
 232.421875 -184.375 15.625 32.421875 15.625 300 c 0
 15.625 567.578125 232.421875 784.375 500 784.375 c 0xa8
EndSplineSet
Validated: 1
EndChar

StartChar: ograve
Encoding: 242 242 126
Width: 1000
VWidth: 0
HStem: -184.375 21G<366.211 633.789> -184.375 21G<366.211 633.789> 764.375 20G<366.211 633.789> 764.375 20G<366.211 633.789>
VStem: 15.625 968.75<155.937 444.063>
LayerCount: 2
Fore
SplineSet
500 784.375 m 0xa8
 767.578125 784.375 984.375 567.578125 984.375 300 c 0
 984.375 32.421875 767.578125 -184.375 500 -184.375 c 0
 232.421875 -184.375 15.625 32.421875 15.625 300 c 0
 15.625 567.578125 232.421875 784.375 500 784.375 c 0xa8
EndSplineSet
Validated: 1
EndChar

StartChar: oacute
Encoding: 243 243 127
Width: 1000
VWidth: 0
HStem: -184.375 21G<366.211 633.789> -184.375 21G<366.211 633.789> 764.375 20G<366.211 633.789> 764.375 20G<366.211 633.789>
VStem: 15.625 968.75<155.937 444.063>
LayerCount: 2
Fore
SplineSet
500 784.375 m 0xa8
 767.578125 784.375 984.375 567.578125 984.375 300 c 0
 984.375 32.421875 767.578125 -184.375 500 -184.375 c 0
 232.421875 -184.375 15.625 32.421875 15.625 300 c 0
 15.625 567.578125 232.421875 784.375 500 784.375 c 0xa8
EndSplineSet
Validated: 1
EndChar

StartChar: X
Encoding: 88 88 128
Width: 1000
VWidth: 0
HStem: -184.375 21G<366.211 633.789> -184.375 21G<366.211 633.789> 764.375 20G<366.211 633.789> 764.375 20G<366.211 633.789>
VStem: 15.625 968.75<155.937 444.063>
LayerCount: 2
Fore
SplineSet
500 784.375 m 0xa8
 767.578125 784.375 984.375 567.578125 984.375 300 c 0
 984.375 32.421875 767.578125 -184.375 500 -184.375 c 0
 232.421875 -184.375 15.625 32.421875 15.625 300 c 0
 15.625 567.578125 232.421875 784.375 500 784.375 c 0xa8
EndSplineSet
Validated: 1
EndChar

StartChar: uni007F
Encoding: 127 127 129
Width: 1000
VWidth: 0
HStem: -184.375 21G<366.211 633.789> -184.375 21G<366.211 633.789> 764.375 20G<366.211 633.789> 764.375 20G<366.211 633.789>
VStem: 15.625 968.75<155.937 444.063>
LayerCount: 2
Fore
SplineSet
500 784.375 m 0xa8
 767.578125 784.375 984.375 567.578125 984.375 300 c 0
 984.375 32.421875 767.578125 -184.375 500 -184.375 c 0
 232.421875 -184.375 15.625 32.421875 15.625 300 c 0
 15.625 567.578125 232.421875 784.375 500 784.375 c 0xa8
EndSplineSet
Validated: 1
EndChar

StartChar: brokenbar
Encoding: 166 166 130
Width: 1000
VWidth: 0
HStem: -184.375 21G<366.211 633.789> -184.375 21G<366.211 633.789> 764.375 20G<366.211 633.789> 764.375 20G<366.211 633.789>
VStem: 15.625 968.75<155.937 444.063>
LayerCount: 2
Fore
SplineSet
500 784.375 m 0xa8
 767.578125 784.375 984.375 567.578125 984.375 300 c 0
 984.375 32.421875 767.578125 -184.375 500 -184.375 c 0
 232.421875 -184.375 15.625 32.421875 15.625 300 c 0
 15.625 567.578125 232.421875 784.375 500 784.375 c 0xa8
EndSplineSet
Validated: 1
EndChar

StartChar: Iacute
Encoding: 205 205 131
Width: 1000
VWidth: 0
HStem: -184.375 21G<366.211 633.789> -184.375 21G<366.211 633.789> 764.375 20G<366.211 633.789> 764.375 20G<366.211 633.789>
VStem: 15.625 968.75<155.937 444.063>
LayerCount: 2
Fore
SplineSet
500 784.375 m 0xa8
 767.578125 784.375 984.375 567.578125 984.375 300 c 0
 984.375 32.421875 767.578125 -184.375 500 -184.375 c 0
 232.421875 -184.375 15.625 32.421875 15.625 300 c 0
 15.625 567.578125 232.421875 784.375 500 784.375 c 0xa8
EndSplineSet
Validated: 1
EndChar

StartChar: ocircumflex
Encoding: 244 244 132
Width: 1000
VWidth: 0
HStem: -184.375 21G<366.211 633.789> -184.375 21G<366.211 633.789> 764.375 20G<366.211 633.789> 764.375 20G<366.211 633.789>
VStem: 15.625 968.75<155.937 444.063>
LayerCount: 2
Fore
SplineSet
500 784.375 m 0xa8
 767.578125 784.375 984.375 567.578125 984.375 300 c 0
 984.375 32.421875 767.578125 -184.375 500 -184.375 c 0
 232.421875 -184.375 15.625 32.421875 15.625 300 c 0
 15.625 567.578125 232.421875 784.375 500 784.375 c 0xa8
EndSplineSet
Validated: 1
EndChar

StartChar: Y
Encoding: 89 89 133
Width: 1000
VWidth: 0
HStem: -184.375 21G<366.211 633.789> -184.375 21G<366.211 633.789> 764.375 20G<366.211 633.789> 764.375 20G<366.211 633.789>
VStem: 15.625 968.75<155.937 444.063>
LayerCount: 2
Fore
SplineSet
500 784.375 m 0xa8
 767.578125 784.375 984.375 567.578125 984.375 300 c 0
 984.375 32.421875 767.578125 -184.375 500 -184.375 c 0
 232.421875 -184.375 15.625 32.421875 15.625 300 c 0
 15.625 567.578125 232.421875 784.375 500 784.375 c 0xa8
EndSplineSet
Validated: 1
EndChar

StartChar: uni0080
Encoding: 128 128 134
Width: 1000
VWidth: 0
HStem: -184.375 21G<366.211 633.789> -184.375 21G<366.211 633.789> 764.375 20G<366.211 633.789> 764.375 20G<366.211 633.789>
VStem: 15.625 968.75<155.937 444.063>
LayerCount: 2
Fore
SplineSet
500 784.375 m 0xa8
 767.578125 784.375 984.375 567.578125 984.375 300 c 0
 984.375 32.421875 767.578125 -184.375 500 -184.375 c 0
 232.421875 -184.375 15.625 32.421875 15.625 300 c 0
 15.625 567.578125 232.421875 784.375 500 784.375 c 0xa8
EndSplineSet
Validated: 1
EndChar

StartChar: section
Encoding: 167 167 135
Width: 1000
VWidth: 0
HStem: -184.375 21G<366.211 633.789> -184.375 21G<366.211 633.789> 764.375 20G<366.211 633.789> 764.375 20G<366.211 633.789>
VStem: 15.625 968.75<155.937 444.063>
LayerCount: 2
Fore
SplineSet
500 784.375 m 0xa8
 767.578125 784.375 984.375 567.578125 984.375 300 c 0
 984.375 32.421875 767.578125 -184.375 500 -184.375 c 0
 232.421875 -184.375 15.625 32.421875 15.625 300 c 0
 15.625 567.578125 232.421875 784.375 500 784.375 c 0xa8
EndSplineSet
Validated: 1
EndChar

StartChar: Icircumflex
Encoding: 206 206 136
Width: 1000
VWidth: 0
HStem: -184.375 21G<366.211 633.789> -184.375 21G<366.211 633.789> 764.375 20G<366.211 633.789> 764.375 20G<366.211 633.789>
VStem: 15.625 968.75<155.937 444.063>
LayerCount: 2
Fore
SplineSet
500 784.375 m 0xa8
 767.578125 784.375 984.375 567.578125 984.375 300 c 0
 984.375 32.421875 767.578125 -184.375 500 -184.375 c 0
 232.421875 -184.375 15.625 32.421875 15.625 300 c 0
 15.625 567.578125 232.421875 784.375 500 784.375 c 0xa8
EndSplineSet
Validated: 1
EndChar

StartChar: otilde
Encoding: 245 245 137
Width: 1000
VWidth: 0
HStem: -184.375 21G<366.211 633.789> -184.375 21G<366.211 633.789> 764.375 20G<366.211 633.789> 764.375 20G<366.211 633.789>
VStem: 15.625 968.75<155.937 444.063>
LayerCount: 2
Fore
SplineSet
500 784.375 m 0xa8
 767.578125 784.375 984.375 567.578125 984.375 300 c 0
 984.375 32.421875 767.578125 -184.375 500 -184.375 c 0
 232.421875 -184.375 15.625 32.421875 15.625 300 c 0
 15.625 567.578125 232.421875 784.375 500 784.375 c 0xa8
EndSplineSet
Validated: 1
EndChar

StartChar: Z
Encoding: 90 90 138
Width: 1000
VWidth: 0
HStem: -184.375 21G<366.211 633.789> -184.375 21G<366.211 633.789> 764.375 20G<366.211 633.789> 764.375 20G<366.211 633.789>
VStem: 15.625 968.75<155.937 444.063>
LayerCount: 2
Fore
SplineSet
500 784.375 m 0xa8
 767.578125 784.375 984.375 567.578125 984.375 300 c 0
 984.375 32.421875 767.578125 -184.375 500 -184.375 c 0
 232.421875 -184.375 15.625 32.421875 15.625 300 c 0
 15.625 567.578125 232.421875 784.375 500 784.375 c 0xa8
EndSplineSet
Validated: 1
EndChar

StartChar: uni0081
Encoding: 129 129 139
Width: 1000
VWidth: 0
HStem: -184.375 21G<366.211 633.789> -184.375 21G<366.211 633.789> 764.375 20G<366.211 633.789> 764.375 20G<366.211 633.789>
VStem: 15.625 968.75<155.937 444.063>
LayerCount: 2
Fore
SplineSet
500 784.375 m 0xa8
 767.578125 784.375 984.375 567.578125 984.375 300 c 0
 984.375 32.421875 767.578125 -184.375 500 -184.375 c 0
 232.421875 -184.375 15.625 32.421875 15.625 300 c 0
 15.625 567.578125 232.421875 784.375 500 784.375 c 0xa8
EndSplineSet
Validated: 1
EndChar

StartChar: dieresis
Encoding: 168 168 140
Width: 1000
VWidth: 0
HStem: -184.375 21G<366.211 633.789> -184.375 21G<366.211 633.789> 764.375 20G<366.211 633.789> 764.375 20G<366.211 633.789>
VStem: 15.625 968.75<155.937 444.063>
LayerCount: 2
Fore
SplineSet
500 784.375 m 0xa8
 767.578125 784.375 984.375 567.578125 984.375 300 c 0
 984.375 32.421875 767.578125 -184.375 500 -184.375 c 0
 232.421875 -184.375 15.625 32.421875 15.625 300 c 0
 15.625 567.578125 232.421875 784.375 500 784.375 c 0xa8
EndSplineSet
Validated: 1
EndChar

StartChar: Idieresis
Encoding: 207 207 141
Width: 1000
VWidth: 0
HStem: -184.375 21G<366.211 633.789> -184.375 21G<366.211 633.789> 764.375 20G<366.211 633.789> 764.375 20G<366.211 633.789>
VStem: 15.625 968.75<155.937 444.063>
LayerCount: 2
Fore
SplineSet
500 784.375 m 0xa8
 767.578125 784.375 984.375 567.578125 984.375 300 c 0
 984.375 32.421875 767.578125 -184.375 500 -184.375 c 0
 232.421875 -184.375 15.625 32.421875 15.625 300 c 0
 15.625 567.578125 232.421875 784.375 500 784.375 c 0xa8
EndSplineSet
Validated: 1
EndChar

StartChar: odieresis
Encoding: 246 246 142
Width: 1000
VWidth: 0
HStem: -184.375 21G<366.211 633.789> -184.375 21G<366.211 633.789> 764.375 20G<366.211 633.789> 764.375 20G<366.211 633.789>
VStem: 15.625 968.75<155.937 444.063>
LayerCount: 2
Fore
SplineSet
500 784.375 m 0xa8
 767.578125 784.375 984.375 567.578125 984.375 300 c 0
 984.375 32.421875 767.578125 -184.375 500 -184.375 c 0
 232.421875 -184.375 15.625 32.421875 15.625 300 c 0
 15.625 567.578125 232.421875 784.375 500 784.375 c 0xa8
EndSplineSet
Validated: 1
EndChar

StartChar: uni0082
Encoding: 130 130 143
Width: 1000
VWidth: 0
HStem: -184.375 21G<366.211 633.789> -184.375 21G<366.211 633.789> 764.375 20G<366.211 633.789> 764.375 20G<366.211 633.789>
VStem: 15.625 968.75<155.937 444.063>
LayerCount: 2
Fore
SplineSet
500 784.375 m 0xa8
 767.578125 784.375 984.375 567.578125 984.375 300 c 0
 984.375 32.421875 767.578125 -184.375 500 -184.375 c 0
 232.421875 -184.375 15.625 32.421875 15.625 300 c 0
 15.625 567.578125 232.421875 784.375 500 784.375 c 0xa8
EndSplineSet
Validated: 1
EndChar

StartChar: bracketleft
Encoding: 91 91 144
Width: 1000
VWidth: 0
HStem: -184.375 21G<366.211 633.789> -184.375 21G<366.211 633.789> 764.375 20G<366.211 633.789> 764.375 20G<366.211 633.789>
VStem: 15.625 968.75<155.937 444.063>
LayerCount: 2
Fore
SplineSet
500 784.375 m 0xa8
 767.578125 784.375 984.375 567.578125 984.375 300 c 0
 984.375 32.421875 767.578125 -184.375 500 -184.375 c 0
 232.421875 -184.375 15.625 32.421875 15.625 300 c 0
 15.625 567.578125 232.421875 784.375 500 784.375 c 0xa8
EndSplineSet
Validated: 1
EndChar

StartChar: copyright
Encoding: 169 169 145
Width: 1000
VWidth: 0
HStem: -184.375 21G<366.211 633.789> -184.375 21G<366.211 633.789> 764.375 20G<366.211 633.789> 764.375 20G<366.211 633.789>
VStem: 15.625 968.75<155.937 444.063>
LayerCount: 2
Fore
SplineSet
500 784.375 m 0xa8
 767.578125 784.375 984.375 567.578125 984.375 300 c 0
 984.375 32.421875 767.578125 -184.375 500 -184.375 c 0
 232.421875 -184.375 15.625 32.421875 15.625 300 c 0
 15.625 567.578125 232.421875 784.375 500 784.375 c 0xa8
EndSplineSet
Validated: 1
EndChar

StartChar: Eth
Encoding: 208 208 146
Width: 1000
VWidth: 0
HStem: -184.375 21G<366.211 633.789> -184.375 21G<366.211 633.789> 764.375 20G<366.211 633.789> 764.375 20G<366.211 633.789>
VStem: 15.625 968.75<155.937 444.063>
LayerCount: 2
Fore
SplineSet
500 784.375 m 0xa8
 767.578125 784.375 984.375 567.578125 984.375 300 c 0
 984.375 32.421875 767.578125 -184.375 500 -184.375 c 0
 232.421875 -184.375 15.625 32.421875 15.625 300 c 0
 15.625 567.578125 232.421875 784.375 500 784.375 c 0xa8
EndSplineSet
Validated: 1
EndChar

StartChar: divide
Encoding: 247 247 147
Width: 1000
VWidth: 0
HStem: -184.375 21G<366.211 633.789> -184.375 21G<366.211 633.789> 764.375 20G<366.211 633.789> 764.375 20G<366.211 633.789>
VStem: 15.625 968.75<155.937 444.063>
LayerCount: 2
Fore
SplineSet
500 784.375 m 0xa8
 767.578125 784.375 984.375 567.578125 984.375 300 c 0
 984.375 32.421875 767.578125 -184.375 500 -184.375 c 0
 232.421875 -184.375 15.625 32.421875 15.625 300 c 0
 15.625 567.578125 232.421875 784.375 500 784.375 c 0xa8
EndSplineSet
Validated: 1
EndChar

StartChar: backslash
Encoding: 92 92 148
Width: 1000
VWidth: 0
HStem: -184.375 21G<366.211 633.789> -184.375 21G<366.211 633.789> 764.375 20G<366.211 633.789> 764.375 20G<366.211 633.789>
VStem: 15.625 968.75<155.937 444.063>
LayerCount: 2
Fore
SplineSet
500 784.375 m 0xa8
 767.578125 784.375 984.375 567.578125 984.375 300 c 0
 984.375 32.421875 767.578125 -184.375 500 -184.375 c 0
 232.421875 -184.375 15.625 32.421875 15.625 300 c 0
 15.625 567.578125 232.421875 784.375 500 784.375 c 0xa8
EndSplineSet
Validated: 1
EndChar

StartChar: uni0083
Encoding: 131 131 149
Width: 1000
VWidth: 0
HStem: -184.375 21G<366.211 633.789> -184.375 21G<366.211 633.789> 764.375 20G<366.211 633.789> 764.375 20G<366.211 633.789>
VStem: 15.625 968.75<155.937 444.063>
LayerCount: 2
Fore
SplineSet
500 784.375 m 0xa8
 767.578125 784.375 984.375 567.578125 984.375 300 c 0
 984.375 32.421875 767.578125 -184.375 500 -184.375 c 0
 232.421875 -184.375 15.625 32.421875 15.625 300 c 0
 15.625 567.578125 232.421875 784.375 500 784.375 c 0xa8
EndSplineSet
Validated: 1
EndChar

StartChar: ordfeminine
Encoding: 170 170 150
Width: 1000
VWidth: 0
HStem: -184.375 21G<366.211 633.789> -184.375 21G<366.211 633.789> 764.375 20G<366.211 633.789> 764.375 20G<366.211 633.789>
VStem: 15.625 968.75<155.937 444.063>
LayerCount: 2
Fore
SplineSet
500 784.375 m 0xa8
 767.578125 784.375 984.375 567.578125 984.375 300 c 0
 984.375 32.421875 767.578125 -184.375 500 -184.375 c 0
 232.421875 -184.375 15.625 32.421875 15.625 300 c 0
 15.625 567.578125 232.421875 784.375 500 784.375 c 0xa8
EndSplineSet
Validated: 1
EndChar

StartChar: Ntilde
Encoding: 209 209 151
Width: 1000
VWidth: 0
HStem: -184.375 21G<366.211 633.789> -184.375 21G<366.211 633.789> 764.375 20G<366.211 633.789> 764.375 20G<366.211 633.789>
VStem: 15.625 968.75<155.937 444.063>
LayerCount: 2
Fore
SplineSet
500 784.375 m 0xa8
 767.578125 784.375 984.375 567.578125 984.375 300 c 0
 984.375 32.421875 767.578125 -184.375 500 -184.375 c 0
 232.421875 -184.375 15.625 32.421875 15.625 300 c 0
 15.625 567.578125 232.421875 784.375 500 784.375 c 0xa8
EndSplineSet
Validated: 1
EndChar

StartChar: oslash
Encoding: 248 248 152
Width: 1000
VWidth: 0
HStem: -184.375 21G<366.211 633.789> -184.375 21G<366.211 633.789> 764.375 20G<366.211 633.789> 764.375 20G<366.211 633.789>
VStem: 15.625 968.75<155.937 444.063>
LayerCount: 2
Fore
SplineSet
500 784.375 m 0xa8
 767.578125 784.375 984.375 567.578125 984.375 300 c 0
 984.375 32.421875 767.578125 -184.375 500 -184.375 c 0
 232.421875 -184.375 15.625 32.421875 15.625 300 c 0
 15.625 567.578125 232.421875 784.375 500 784.375 c 0xa8
EndSplineSet
Validated: 1
EndChar

StartChar: bracketright
Encoding: 93 93 153
Width: 1000
VWidth: 0
HStem: -184.375 21G<366.211 633.789> -184.375 21G<366.211 633.789> 764.375 20G<366.211 633.789> 764.375 20G<366.211 633.789>
VStem: 15.625 968.75<155.937 444.063>
LayerCount: 2
Fore
SplineSet
500 784.375 m 0xa8
 767.578125 784.375 984.375 567.578125 984.375 300 c 0
 984.375 32.421875 767.578125 -184.375 500 -184.375 c 0
 232.421875 -184.375 15.625 32.421875 15.625 300 c 0
 15.625 567.578125 232.421875 784.375 500 784.375 c 0xa8
EndSplineSet
Validated: 1
EndChar

StartChar: uni0084
Encoding: 132 132 154
Width: 1000
VWidth: 0
HStem: -184.375 21G<366.211 633.789> -184.375 21G<366.211 633.789> 764.375 20G<366.211 633.789> 764.375 20G<366.211 633.789>
VStem: 15.625 968.75<155.937 444.063>
LayerCount: 2
Fore
SplineSet
500 784.375 m 0xa8
 767.578125 784.375 984.375 567.578125 984.375 300 c 0
 984.375 32.421875 767.578125 -184.375 500 -184.375 c 0
 232.421875 -184.375 15.625 32.421875 15.625 300 c 0
 15.625 567.578125 232.421875 784.375 500 784.375 c 0xa8
EndSplineSet
Validated: 1
EndChar

StartChar: guillemotleft
Encoding: 171 171 155
Width: 1000
VWidth: 0
HStem: -184.375 21G<366.211 633.789> -184.375 21G<366.211 633.789> 764.375 20G<366.211 633.789> 764.375 20G<366.211 633.789>
VStem: 15.625 968.75<155.937 444.063>
LayerCount: 2
Fore
SplineSet
500 784.375 m 0xa8
 767.578125 784.375 984.375 567.578125 984.375 300 c 0
 984.375 32.421875 767.578125 -184.375 500 -184.375 c 0
 232.421875 -184.375 15.625 32.421875 15.625 300 c 0
 15.625 567.578125 232.421875 784.375 500 784.375 c 0xa8
EndSplineSet
Validated: 1
EndChar

StartChar: Ograve
Encoding: 210 210 156
Width: 1000
VWidth: 0
HStem: -184.375 21G<366.211 633.789> -184.375 21G<366.211 633.789> 764.375 20G<366.211 633.789> 764.375 20G<366.211 633.789>
VStem: 15.625 968.75<155.937 444.063>
LayerCount: 2
Fore
SplineSet
500 784.375 m 0xa8
 767.578125 784.375 984.375 567.578125 984.375 300 c 0
 984.375 32.421875 767.578125 -184.375 500 -184.375 c 0
 232.421875 -184.375 15.625 32.421875 15.625 300 c 0
 15.625 567.578125 232.421875 784.375 500 784.375 c 0xa8
EndSplineSet
Validated: 1
EndChar

StartChar: ugrave
Encoding: 249 249 157
Width: 1000
VWidth: 0
HStem: -184.375 21G<366.211 633.789> -184.375 21G<366.211 633.789> 764.375 20G<366.211 633.789> 764.375 20G<366.211 633.789>
VStem: 15.625 968.75<155.937 444.063>
LayerCount: 2
Fore
SplineSet
500 784.375 m 0xa8
 767.578125 784.375 984.375 567.578125 984.375 300 c 0
 984.375 32.421875 767.578125 -184.375 500 -184.375 c 0
 232.421875 -184.375 15.625 32.421875 15.625 300 c 0
 15.625 567.578125 232.421875 784.375 500 784.375 c 0xa8
EndSplineSet
Validated: 1
EndChar

StartChar: asciicircum
Encoding: 94 94 158
Width: 1000
VWidth: 0
HStem: -184.375 21G<366.211 633.789> -184.375 21G<366.211 633.789> 764.375 20G<366.211 633.789> 764.375 20G<366.211 633.789>
VStem: 15.625 968.75<155.937 444.063>
LayerCount: 2
Fore
SplineSet
500 784.375 m 0xa8
 767.578125 784.375 984.375 567.578125 984.375 300 c 0
 984.375 32.421875 767.578125 -184.375 500 -184.375 c 0
 232.421875 -184.375 15.625 32.421875 15.625 300 c 0
 15.625 567.578125 232.421875 784.375 500 784.375 c 0xa8
EndSplineSet
Validated: 1
EndChar

StartChar: uni0085
Encoding: 133 133 159
Width: 1000
VWidth: 0
HStem: -184.375 21G<366.211 633.789> -184.375 21G<366.211 633.789> 764.375 20G<366.211 633.789> 764.375 20G<366.211 633.789>
VStem: 15.625 968.75<155.937 444.063>
LayerCount: 2
Fore
SplineSet
500 784.375 m 0xa8
 767.578125 784.375 984.375 567.578125 984.375 300 c 0
 984.375 32.421875 767.578125 -184.375 500 -184.375 c 0
 232.421875 -184.375 15.625 32.421875 15.625 300 c 0
 15.625 567.578125 232.421875 784.375 500 784.375 c 0xa8
EndSplineSet
Validated: 1
EndChar

StartChar: Oacute
Encoding: 211 211 160
Width: 1000
VWidth: 0
HStem: -184.375 21G<366.211 633.789> -184.375 21G<366.211 633.789> 764.375 20G<366.211 633.789> 764.375 20G<366.211 633.789>
VStem: 15.625 968.75<155.937 444.063>
LayerCount: 2
Fore
SplineSet
500 784.375 m 0xa8
 767.578125 784.375 984.375 567.578125 984.375 300 c 0
 984.375 32.421875 767.578125 -184.375 500 -184.375 c 0
 232.421875 -184.375 15.625 32.421875 15.625 300 c 0
 15.625 567.578125 232.421875 784.375 500 784.375 c 0xa8
EndSplineSet
Validated: 1
EndChar

StartChar: logicalnot
Encoding: 172 172 161
Width: 1000
VWidth: 0
HStem: -184.375 21G<366.211 633.789> -184.375 21G<366.211 633.789> 764.375 20G<366.211 633.789> 764.375 20G<366.211 633.789>
VStem: 15.625 968.75<155.937 444.063>
LayerCount: 2
Fore
SplineSet
500 784.375 m 0xa8
 767.578125 784.375 984.375 567.578125 984.375 300 c 0
 984.375 32.421875 767.578125 -184.375 500 -184.375 c 0
 232.421875 -184.375 15.625 32.421875 15.625 300 c 0
 15.625 567.578125 232.421875 784.375 500 784.375 c 0xa8
EndSplineSet
Validated: 1
EndChar

StartChar: uacute
Encoding: 250 250 162
Width: 1000
VWidth: 0
HStem: -184.375 21G<366.211 633.789> -184.375 21G<366.211 633.789> 764.375 20G<366.211 633.789> 764.375 20G<366.211 633.789>
VStem: 15.625 968.75<155.937 444.063>
LayerCount: 2
Fore
SplineSet
500 784.375 m 0xa8
 767.578125 784.375 984.375 567.578125 984.375 300 c 0
 984.375 32.421875 767.578125 -184.375 500 -184.375 c 0
 232.421875 -184.375 15.625 32.421875 15.625 300 c 0
 15.625 567.578125 232.421875 784.375 500 784.375 c 0xa8
EndSplineSet
Validated: 1
EndChar

StartChar: underscore
Encoding: 95 95 163
Width: 1000
VWidth: 0
HStem: -184.375 21G<366.211 633.789> -184.375 21G<366.211 633.789> 764.375 20G<366.211 633.789> 764.375 20G<366.211 633.789>
VStem: 15.625 968.75<155.937 444.063>
LayerCount: 2
Fore
SplineSet
500 784.375 m 0xa8
 767.578125 784.375 984.375 567.578125 984.375 300 c 0
 984.375 32.421875 767.578125 -184.375 500 -184.375 c 0
 232.421875 -184.375 15.625 32.421875 15.625 300 c 0
 15.625 567.578125 232.421875 784.375 500 784.375 c 0xa8
EndSplineSet
Validated: 1
EndChar

StartChar: uni0086
Encoding: 134 134 164
Width: 1000
VWidth: 0
HStem: -184.375 21G<366.211 633.789> -184.375 21G<366.211 633.789> 764.375 20G<366.211 633.789> 764.375 20G<366.211 633.789>
VStem: 15.625 968.75<155.937 444.063>
LayerCount: 2
Fore
SplineSet
500 784.375 m 0xa8
 767.578125 784.375 984.375 567.578125 984.375 300 c 0
 984.375 32.421875 767.578125 -184.375 500 -184.375 c 0
 232.421875 -184.375 15.625 32.421875 15.625 300 c 0
 15.625 567.578125 232.421875 784.375 500 784.375 c 0xa8
EndSplineSet
Validated: 1
EndChar

StartChar: uni00AD
Encoding: 173 173 165
Width: 1000
VWidth: 0
HStem: -184.375 21G<366.211 633.789> -184.375 21G<366.211 633.789> 764.375 20G<366.211 633.789> 764.375 20G<366.211 633.789>
VStem: 15.625 968.75<155.937 444.063>
LayerCount: 2
Fore
SplineSet
500 784.375 m 0xa8
 767.578125 784.375 984.375 567.578125 984.375 300 c 0
 984.375 32.421875 767.578125 -184.375 500 -184.375 c 0
 232.421875 -184.375 15.625 32.421875 15.625 300 c 0
 15.625 567.578125 232.421875 784.375 500 784.375 c 0xa8
EndSplineSet
Validated: 1
EndChar

StartChar: Ocircumflex
Encoding: 212 212 166
Width: 1000
VWidth: 0
HStem: -184.375 21G<366.211 633.789> -184.375 21G<366.211 633.789> 764.375 20G<366.211 633.789> 764.375 20G<366.211 633.789>
VStem: 15.625 968.75<155.937 444.063>
LayerCount: 2
Fore
SplineSet
500 784.375 m 0xa8
 767.578125 784.375 984.375 567.578125 984.375 300 c 0
 984.375 32.421875 767.578125 -184.375 500 -184.375 c 0
 232.421875 -184.375 15.625 32.421875 15.625 300 c 0
 15.625 567.578125 232.421875 784.375 500 784.375 c 0xa8
EndSplineSet
Validated: 1
EndChar

StartChar: ucircumflex
Encoding: 251 251 167
Width: 1000
VWidth: 0
HStem: -184.375 21G<366.211 633.789> -184.375 21G<366.211 633.789> 764.375 20G<366.211 633.789> 764.375 20G<366.211 633.789>
VStem: 15.625 968.75<155.937 444.063>
LayerCount: 2
Fore
SplineSet
500 784.375 m 0xa8
 767.578125 784.375 984.375 567.578125 984.375 300 c 0
 984.375 32.421875 767.578125 -184.375 500 -184.375 c 0
 232.421875 -184.375 15.625 32.421875 15.625 300 c 0
 15.625 567.578125 232.421875 784.375 500 784.375 c 0xa8
EndSplineSet
Validated: 1
EndChar

StartChar: grave
Encoding: 96 96 168
Width: 1000
VWidth: 0
HStem: -184.375 21G<366.211 633.789> -184.375 21G<366.211 633.789> 764.375 20G<366.211 633.789> 764.375 20G<366.211 633.789>
VStem: 15.625 968.75<155.937 444.063>
LayerCount: 2
Fore
SplineSet
500 784.375 m 0xa8
 767.578125 784.375 984.375 567.578125 984.375 300 c 0
 984.375 32.421875 767.578125 -184.375 500 -184.375 c 0
 232.421875 -184.375 15.625 32.421875 15.625 300 c 0
 15.625 567.578125 232.421875 784.375 500 784.375 c 0xa8
EndSplineSet
Validated: 1
EndChar

StartChar: uni0087
Encoding: 135 135 169
Width: 1000
VWidth: 0
HStem: -184.375 21G<366.211 633.789> -184.375 21G<366.211 633.789> 764.375 20G<366.211 633.789> 764.375 20G<366.211 633.789>
VStem: 15.625 968.75<155.937 444.063>
LayerCount: 2
Fore
SplineSet
500 784.375 m 0xa8
 767.578125 784.375 984.375 567.578125 984.375 300 c 0
 984.375 32.421875 767.578125 -184.375 500 -184.375 c 0
 232.421875 -184.375 15.625 32.421875 15.625 300 c 0
 15.625 567.578125 232.421875 784.375 500 784.375 c 0xa8
EndSplineSet
Validated: 1
EndChar

StartChar: registered
Encoding: 174 174 170
Width: 1000
VWidth: 0
HStem: -184.375 21G<366.211 633.789> -184.375 21G<366.211 633.789> 764.375 20G<366.211 633.789> 764.375 20G<366.211 633.789>
VStem: 15.625 968.75<155.937 444.063>
LayerCount: 2
Fore
SplineSet
500 784.375 m 0xa8
 767.578125 784.375 984.375 567.578125 984.375 300 c 0
 984.375 32.421875 767.578125 -184.375 500 -184.375 c 0
 232.421875 -184.375 15.625 32.421875 15.625 300 c 0
 15.625 567.578125 232.421875 784.375 500 784.375 c 0xa8
EndSplineSet
Validated: 1
EndChar

StartChar: Otilde
Encoding: 213 213 171
Width: 1000
VWidth: 0
HStem: -184.375 21G<366.211 633.789> -184.375 21G<366.211 633.789> 764.375 20G<366.211 633.789> 764.375 20G<366.211 633.789>
VStem: 15.625 968.75<155.937 444.063>
LayerCount: 2
Fore
SplineSet
500 784.375 m 0xa8
 767.578125 784.375 984.375 567.578125 984.375 300 c 0
 984.375 32.421875 767.578125 -184.375 500 -184.375 c 0
 232.421875 -184.375 15.625 32.421875 15.625 300 c 0
 15.625 567.578125 232.421875 784.375 500 784.375 c 0xa8
EndSplineSet
Validated: 1
EndChar

StartChar: udieresis
Encoding: 252 252 172
Width: 1000
VWidth: 0
HStem: -184.375 21G<366.211 633.789> -184.375 21G<366.211 633.789> 764.375 20G<366.211 633.789> 764.375 20G<366.211 633.789>
VStem: 15.625 968.75<155.937 444.063>
LayerCount: 2
Fore
SplineSet
500 784.375 m 0xa8
 767.578125 784.375 984.375 567.578125 984.375 300 c 0
 984.375 32.421875 767.578125 -184.375 500 -184.375 c 0
 232.421875 -184.375 15.625 32.421875 15.625 300 c 0
 15.625 567.578125 232.421875 784.375 500 784.375 c 0xa8
EndSplineSet
Validated: 1
EndChar

StartChar: a
Encoding: 97 97 173
Width: 1000
VWidth: 0
HStem: -184.375 21G<366.211 633.789> -184.375 21G<366.211 633.789> 764.375 20G<366.211 633.789> 764.375 20G<366.211 633.789>
VStem: 15.625 968.75<155.937 444.063>
LayerCount: 2
Fore
SplineSet
500 784.375 m 0xa8
 767.578125 784.375 984.375 567.578125 984.375 300 c 0
 984.375 32.421875 767.578125 -184.375 500 -184.375 c 0
 232.421875 -184.375 15.625 32.421875 15.625 300 c 0
 15.625 567.578125 232.421875 784.375 500 784.375 c 0xa8
EndSplineSet
Validated: 1
EndChar

StartChar: uni0088
Encoding: 136 136 174
Width: 1000
VWidth: 0
HStem: -184.375 21G<366.211 633.789> -184.375 21G<366.211 633.789> 764.375 20G<366.211 633.789> 764.375 20G<366.211 633.789>
VStem: 15.625 968.75<155.937 444.063>
LayerCount: 2
Fore
SplineSet
500 784.375 m 0xa8
 767.578125 784.375 984.375 567.578125 984.375 300 c 0
 984.375 32.421875 767.578125 -184.375 500 -184.375 c 0
 232.421875 -184.375 15.625 32.421875 15.625 300 c 0
 15.625 567.578125 232.421875 784.375 500 784.375 c 0xa8
EndSplineSet
Validated: 1
EndChar

StartChar: macron
Encoding: 175 175 175
Width: 1000
VWidth: 0
HStem: -184.375 21G<366.211 633.789> -184.375 21G<366.211 633.789> 764.375 20G<366.211 633.789> 764.375 20G<366.211 633.789>
VStem: 15.625 968.75<155.937 444.063>
LayerCount: 2
Fore
SplineSet
500 784.375 m 0xa8
 767.578125 784.375 984.375 567.578125 984.375 300 c 0
 984.375 32.421875 767.578125 -184.375 500 -184.375 c 0
 232.421875 -184.375 15.625 32.421875 15.625 300 c 0
 15.625 567.578125 232.421875 784.375 500 784.375 c 0xa8
EndSplineSet
Validated: 1
EndChar

StartChar: Odieresis
Encoding: 214 214 176
Width: 1000
VWidth: 0
HStem: -184.375 21G<366.211 633.789> -184.375 21G<366.211 633.789> 764.375 20G<366.211 633.789> 764.375 20G<366.211 633.789>
VStem: 15.625 968.75<155.937 444.063>
LayerCount: 2
Fore
SplineSet
500 784.375 m 0xa8
 767.578125 784.375 984.375 567.578125 984.375 300 c 0
 984.375 32.421875 767.578125 -184.375 500 -184.375 c 0
 232.421875 -184.375 15.625 32.421875 15.625 300 c 0
 15.625 567.578125 232.421875 784.375 500 784.375 c 0xa8
EndSplineSet
Validated: 1
EndChar

StartChar: yacute
Encoding: 253 253 177
Width: 1000
VWidth: 0
HStem: -184.375 21G<366.211 633.789> -184.375 21G<366.211 633.789> 764.375 20G<366.211 633.789> 764.375 20G<366.211 633.789>
VStem: 15.625 968.75<155.937 444.063>
LayerCount: 2
Fore
SplineSet
500 784.375 m 0xa8
 767.578125 784.375 984.375 567.578125 984.375 300 c 0
 984.375 32.421875 767.578125 -184.375 500 -184.375 c 0
 232.421875 -184.375 15.625 32.421875 15.625 300 c 0
 15.625 567.578125 232.421875 784.375 500 784.375 c 0xa8
EndSplineSet
Validated: 1
EndChar

StartChar: b
Encoding: 98 98 178
Width: 1000
VWidth: 0
HStem: -184.375 21G<366.211 633.789> -184.375 21G<366.211 633.789> 764.375 20G<366.211 633.789> 764.375 20G<366.211 633.789>
VStem: 15.625 968.75<155.937 444.063>
LayerCount: 2
Fore
SplineSet
500 784.375 m 0xa8
 767.578125 784.375 984.375 567.578125 984.375 300 c 0
 984.375 32.421875 767.578125 -184.375 500 -184.375 c 0
 232.421875 -184.375 15.625 32.421875 15.625 300 c 0
 15.625 567.578125 232.421875 784.375 500 784.375 c 0xa8
EndSplineSet
Validated: 1
EndChar

StartChar: uni0089
Encoding: 137 137 179
Width: 1000
VWidth: 0
HStem: -184.375 21G<366.211 633.789> -184.375 21G<366.211 633.789> 764.375 20G<366.211 633.789> 764.375 20G<366.211 633.789>
VStem: 15.625 968.75<155.937 444.063>
LayerCount: 2
Fore
SplineSet
500 784.375 m 0xa8
 767.578125 784.375 984.375 567.578125 984.375 300 c 0
 984.375 32.421875 767.578125 -184.375 500 -184.375 c 0
 232.421875 -184.375 15.625 32.421875 15.625 300 c 0
 15.625 567.578125 232.421875 784.375 500 784.375 c 0xa8
EndSplineSet
Validated: 1
EndChar

StartChar: degree
Encoding: 176 176 180
Width: 1000
VWidth: 0
HStem: -184.375 21G<366.211 633.789> -184.375 21G<366.211 633.789> 764.375 20G<366.211 633.789> 764.375 20G<366.211 633.789>
VStem: 15.625 968.75<155.937 444.063>
LayerCount: 2
Fore
SplineSet
500 784.375 m 0xa8
 767.578125 784.375 984.375 567.578125 984.375 300 c 0
 984.375 32.421875 767.578125 -184.375 500 -184.375 c 0
 232.421875 -184.375 15.625 32.421875 15.625 300 c 0
 15.625 567.578125 232.421875 784.375 500 784.375 c 0xa8
EndSplineSet
Validated: 1
EndChar

StartChar: multiply
Encoding: 215 215 181
Width: 1000
VWidth: 0
HStem: -184.375 21G<366.211 633.789> -184.375 21G<366.211 633.789> 764.375 20G<366.211 633.789> 764.375 20G<366.211 633.789>
VStem: 15.625 968.75<155.937 444.063>
LayerCount: 2
Fore
SplineSet
500 784.375 m 0xa8
 767.578125 784.375 984.375 567.578125 984.375 300 c 0
 984.375 32.421875 767.578125 -184.375 500 -184.375 c 0
 232.421875 -184.375 15.625 32.421875 15.625 300 c 0
 15.625 567.578125 232.421875 784.375 500 784.375 c 0xa8
EndSplineSet
Validated: 1
EndChar

StartChar: thorn
Encoding: 254 254 182
Width: 1000
VWidth: 0
HStem: -184.375 21G<366.211 633.789> -184.375 21G<366.211 633.789> 764.375 20G<366.211 633.789> 764.375 20G<366.211 633.789>
VStem: 15.625 968.75<155.937 444.063>
LayerCount: 2
Fore
SplineSet
500 784.375 m 0xa8
 767.578125 784.375 984.375 567.578125 984.375 300 c 0
 984.375 32.421875 767.578125 -184.375 500 -184.375 c 0
 232.421875 -184.375 15.625 32.421875 15.625 300 c 0
 15.625 567.578125 232.421875 784.375 500 784.375 c 0xa8
EndSplineSet
Validated: 1
EndChar

StartChar: c
Encoding: 99 99 183
Width: 1000
VWidth: 0
HStem: -184.375 21G<366.211 633.789> -184.375 21G<366.211 633.789> 764.375 20G<366.211 633.789> 764.375 20G<366.211 633.789>
VStem: 15.625 968.75<155.937 444.063>
LayerCount: 2
Fore
SplineSet
500 784.375 m 0xa8
 767.578125 784.375 984.375 567.578125 984.375 300 c 0
 984.375 32.421875 767.578125 -184.375 500 -184.375 c 0
 232.421875 -184.375 15.625 32.421875 15.625 300 c 0
 15.625 567.578125 232.421875 784.375 500 784.375 c 0xa8
EndSplineSet
Validated: 1
EndChar

StartChar: uni008A
Encoding: 138 138 184
Width: 1000
VWidth: 0
HStem: -184.375 21G<366.211 633.789> -184.375 21G<366.211 633.789> 764.375 20G<366.211 633.789> 764.375 20G<366.211 633.789>
VStem: 15.625 968.75<155.937 444.063>
LayerCount: 2
Fore
SplineSet
500 784.375 m 0xa8
 767.578125 784.375 984.375 567.578125 984.375 300 c 0
 984.375 32.421875 767.578125 -184.375 500 -184.375 c 0
 232.421875 -184.375 15.625 32.421875 15.625 300 c 0
 15.625 567.578125 232.421875 784.375 500 784.375 c 0xa8
EndSplineSet
Validated: 1
EndChar

StartChar: plusminus
Encoding: 177 177 185
Width: 1000
VWidth: 0
HStem: -184.375 21G<366.211 633.789> -184.375 21G<366.211 633.789> 764.375 20G<366.211 633.789> 764.375 20G<366.211 633.789>
VStem: 15.625 968.75<155.937 444.063>
LayerCount: 2
Fore
SplineSet
500 784.375 m 0xa8
 767.578125 784.375 984.375 567.578125 984.375 300 c 0
 984.375 32.421875 767.578125 -184.375 500 -184.375 c 0
 232.421875 -184.375 15.625 32.421875 15.625 300 c 0
 15.625 567.578125 232.421875 784.375 500 784.375 c 0xa8
EndSplineSet
Validated: 1
EndChar

StartChar: Oslash
Encoding: 216 216 186
Width: 1000
VWidth: 0
HStem: -184.375 21G<366.211 633.789> -184.375 21G<366.211 633.789> 764.375 20G<366.211 633.789> 764.375 20G<366.211 633.789>
VStem: 15.625 968.75<155.937 444.063>
LayerCount: 2
Fore
SplineSet
500 784.375 m 0xa8
 767.578125 784.375 984.375 567.578125 984.375 300 c 0
 984.375 32.421875 767.578125 -184.375 500 -184.375 c 0
 232.421875 -184.375 15.625 32.421875 15.625 300 c 0
 15.625 567.578125 232.421875 784.375 500 784.375 c 0xa8
EndSplineSet
Validated: 1
EndChar

StartChar: ydieresis
Encoding: 255 255 187
Width: 1000
VWidth: 0
HStem: -184.375 21G<366.211 633.789> -184.375 21G<366.211 633.789> 764.375 20G<366.211 633.789> 764.375 20G<366.211 633.789>
VStem: 15.625 968.75<155.937 444.063>
LayerCount: 2
Fore
SplineSet
500 784.375 m 0xa8
 767.578125 784.375 984.375 567.578125 984.375 300 c 0
 984.375 32.421875 767.578125 -184.375 500 -184.375 c 0
 232.421875 -184.375 15.625 32.421875 15.625 300 c 0
 15.625 567.578125 232.421875 784.375 500 784.375 c 0xa8
EndSplineSet
Validated: 1
EndChar

StartChar: d
Encoding: 100 100 188
Width: 1000
VWidth: 0
HStem: -184.375 21G<366.211 633.789> -184.375 21G<366.211 633.789> 764.375 20G<366.211 633.789> 764.375 20G<366.211 633.789>
VStem: 15.625 968.75<155.937 444.063>
LayerCount: 2
Fore
SplineSet
500 784.375 m 0xa8
 767.578125 784.375 984.375 567.578125 984.375 300 c 0
 984.375 32.421875 767.578125 -184.375 500 -184.375 c 0
 232.421875 -184.375 15.625 32.421875 15.625 300 c 0
 15.625 567.578125 232.421875 784.375 500 784.375 c 0xa8
EndSplineSet
Validated: 1
EndChar

StartChar: uni008B
Encoding: 139 139 189
Width: 1000
VWidth: 0
HStem: -184.375 21G<366.211 633.789> -184.375 21G<366.211 633.789> 764.375 20G<366.211 633.789> 764.375 20G<366.211 633.789>
VStem: 15.625 968.75<155.937 444.063>
LayerCount: 2
Fore
SplineSet
500 784.375 m 0xa8
 767.578125 784.375 984.375 567.578125 984.375 300 c 0
 984.375 32.421875 767.578125 -184.375 500 -184.375 c 0
 232.421875 -184.375 15.625 32.421875 15.625 300 c 0
 15.625 567.578125 232.421875 784.375 500 784.375 c 0xa8
EndSplineSet
Validated: 1
EndChar

StartChar: uni00B2
Encoding: 178 178 190
Width: 1000
VWidth: 0
HStem: -184.375 21G<366.211 633.789> -184.375 21G<366.211 633.789> 764.375 20G<366.211 633.789> 764.375 20G<366.211 633.789>
VStem: 15.625 968.75<155.937 444.063>
LayerCount: 2
Fore
SplineSet
500 784.375 m 0xa8
 767.578125 784.375 984.375 567.578125 984.375 300 c 0
 984.375 32.421875 767.578125 -184.375 500 -184.375 c 0
 232.421875 -184.375 15.625 32.421875 15.625 300 c 0
 15.625 567.578125 232.421875 784.375 500 784.375 c 0xa8
EndSplineSet
Validated: 1
EndChar

StartChar: Ugrave
Encoding: 217 217 191
Width: 1000
VWidth: 0
HStem: -184.375 21G<366.211 633.789> -184.375 21G<366.211 633.789> 764.375 20G<366.211 633.789> 764.375 20G<366.211 633.789>
VStem: 15.625 968.75<155.937 444.063>
LayerCount: 2
Fore
SplineSet
500 784.375 m 0xa8
 767.578125 784.375 984.375 567.578125 984.375 300 c 0
 984.375 32.421875 767.578125 -184.375 500 -184.375 c 0
 232.421875 -184.375 15.625 32.421875 15.625 300 c 0
 15.625 567.578125 232.421875 784.375 500 784.375 c 0xa8
EndSplineSet
Validated: 1
EndChar

StartChar: e
Encoding: 101 101 192
Width: 1000
VWidth: 0
HStem: -184.375 21G<366.211 633.789> -184.375 21G<366.211 633.789> 764.375 20G<366.211 633.789> 764.375 20G<366.211 633.789>
VStem: 15.625 968.75<155.937 444.063>
LayerCount: 2
Fore
SplineSet
500 784.375 m 0xa8
 767.578125 784.375 984.375 567.578125 984.375 300 c 0
 984.375 32.421875 767.578125 -184.375 500 -184.375 c 0
 232.421875 -184.375 15.625 32.421875 15.625 300 c 0
 15.625 567.578125 232.421875 784.375 500 784.375 c 0xa8
EndSplineSet
Validated: 1
EndChar

StartChar: uni008C
Encoding: 140 140 193
Width: 1000
VWidth: 0
HStem: -184.375 21G<366.211 633.789> -184.375 21G<366.211 633.789> 764.375 20G<366.211 633.789> 764.375 20G<366.211 633.789>
VStem: 15.625 968.75<155.937 444.063>
LayerCount: 2
Fore
SplineSet
500 784.375 m 0xa8
 767.578125 784.375 984.375 567.578125 984.375 300 c 0
 984.375 32.421875 767.578125 -184.375 500 -184.375 c 0
 232.421875 -184.375 15.625 32.421875 15.625 300 c 0
 15.625 567.578125 232.421875 784.375 500 784.375 c 0xa8
EndSplineSet
Validated: 1
EndChar

StartChar: uni00B3
Encoding: 179 179 194
Width: 1000
VWidth: 0
HStem: -184.375 21G<366.211 633.789> -184.375 21G<366.211 633.789> 764.375 20G<366.211 633.789> 764.375 20G<366.211 633.789>
VStem: 15.625 968.75<155.937 444.063>
LayerCount: 2
Fore
SplineSet
500 784.375 m 0xa8
 767.578125 784.375 984.375 567.578125 984.375 300 c 0
 984.375 32.421875 767.578125 -184.375 500 -184.375 c 0
 232.421875 -184.375 15.625 32.421875 15.625 300 c 0
 15.625 567.578125 232.421875 784.375 500 784.375 c 0xa8
EndSplineSet
Validated: 1
EndChar

StartChar: Uacute
Encoding: 218 218 195
Width: 1000
VWidth: 0
HStem: -184.375 21G<366.211 633.789> -184.375 21G<366.211 633.789> 764.375 20G<366.211 633.789> 764.375 20G<366.211 633.789>
VStem: 15.625 968.75<155.937 444.063>
LayerCount: 2
Fore
SplineSet
500 784.375 m 0xa8
 767.578125 784.375 984.375 567.578125 984.375 300 c 0
 984.375 32.421875 767.578125 -184.375 500 -184.375 c 0
 232.421875 -184.375 15.625 32.421875 15.625 300 c 0
 15.625 567.578125 232.421875 784.375 500 784.375 c 0xa8
EndSplineSet
Validated: 1
EndChar

StartChar: f
Encoding: 102 102 196
Width: 1000
VWidth: 0
HStem: -184.375 21G<366.211 633.789> -184.375 21G<366.211 633.789> 764.375 20G<366.211 633.789> 764.375 20G<366.211 633.789>
VStem: 15.625 968.75<155.937 444.063>
LayerCount: 2
Fore
SplineSet
500 784.375 m 0xa8
 767.578125 784.375 984.375 567.578125 984.375 300 c 0
 984.375 32.421875 767.578125 -184.375 500 -184.375 c 0
 232.421875 -184.375 15.625 32.421875 15.625 300 c 0
 15.625 567.578125 232.421875 784.375 500 784.375 c 0xa8
EndSplineSet
Validated: 1
EndChar

StartChar: uni008D
Encoding: 141 141 197
Width: 1000
VWidth: 0
HStem: -184.375 21G<366.211 633.789> -184.375 21G<366.211 633.789> 764.375 20G<366.211 633.789> 764.375 20G<366.211 633.789>
VStem: 15.625 968.75<155.937 444.063>
LayerCount: 2
Fore
SplineSet
500 784.375 m 0xa8
 767.578125 784.375 984.375 567.578125 984.375 300 c 0
 984.375 32.421875 767.578125 -184.375 500 -184.375 c 0
 232.421875 -184.375 15.625 32.421875 15.625 300 c 0
 15.625 567.578125 232.421875 784.375 500 784.375 c 0xa8
EndSplineSet
Validated: 1
EndChar

StartChar: acute
Encoding: 180 180 198
Width: 1000
VWidth: 0
HStem: -184.375 21G<366.211 633.789> -184.375 21G<366.211 633.789> 764.375 20G<366.211 633.789> 764.375 20G<366.211 633.789>
VStem: 15.625 968.75<155.937 444.063>
LayerCount: 2
Fore
SplineSet
500 784.375 m 0xa8
 767.578125 784.375 984.375 567.578125 984.375 300 c 0
 984.375 32.421875 767.578125 -184.375 500 -184.375 c 0
 232.421875 -184.375 15.625 32.421875 15.625 300 c 0
 15.625 567.578125 232.421875 784.375 500 784.375 c 0xa8
EndSplineSet
Validated: 1
EndChar

StartChar: Ucircumflex
Encoding: 219 219 199
Width: 1000
VWidth: 0
HStem: -184.375 21G<366.211 633.789> -184.375 21G<366.211 633.789> 764.375 20G<366.211 633.789> 764.375 20G<366.211 633.789>
VStem: 15.625 968.75<155.937 444.063>
LayerCount: 2
Fore
SplineSet
500 784.375 m 0xa8
 767.578125 784.375 984.375 567.578125 984.375 300 c 0
 984.375 32.421875 767.578125 -184.375 500 -184.375 c 0
 232.421875 -184.375 15.625 32.421875 15.625 300 c 0
 15.625 567.578125 232.421875 784.375 500 784.375 c 0xa8
EndSplineSet
Validated: 1
EndChar

StartChar: g
Encoding: 103 103 200
Width: 1000
VWidth: 0
HStem: -184.375 21G<366.211 633.789> -184.375 21G<366.211 633.789> 764.375 20G<366.211 633.789> 764.375 20G<366.211 633.789>
VStem: 15.625 968.75<155.937 444.063>
LayerCount: 2
Fore
SplineSet
500 784.375 m 0xa8
 767.578125 784.375 984.375 567.578125 984.375 300 c 0
 984.375 32.421875 767.578125 -184.375 500 -184.375 c 0
 232.421875 -184.375 15.625 32.421875 15.625 300 c 0
 15.625 567.578125 232.421875 784.375 500 784.375 c 0xa8
EndSplineSet
Validated: 1
EndChar

StartChar: uni008E
Encoding: 142 142 201
Width: 1000
VWidth: 0
HStem: -184.375 21G<366.211 633.789> -184.375 21G<366.211 633.789> 764.375 20G<366.211 633.789> 764.375 20G<366.211 633.789>
VStem: 15.625 968.75<155.937 444.063>
LayerCount: 2
Fore
SplineSet
500 784.375 m 0xa8
 767.578125 784.375 984.375 567.578125 984.375 300 c 0
 984.375 32.421875 767.578125 -184.375 500 -184.375 c 0
 232.421875 -184.375 15.625 32.421875 15.625 300 c 0
 15.625 567.578125 232.421875 784.375 500 784.375 c 0xa8
EndSplineSet
Validated: 1
EndChar

StartChar: mu
Encoding: 181 181 202
Width: 1000
VWidth: 0
HStem: -184.375 21G<366.211 633.789> -184.375 21G<366.211 633.789> 764.375 20G<366.211 633.789> 764.375 20G<366.211 633.789>
VStem: 15.625 968.75<155.937 444.063>
LayerCount: 2
Fore
SplineSet
500 784.375 m 0xa8
 767.578125 784.375 984.375 567.578125 984.375 300 c 0
 984.375 32.421875 767.578125 -184.375 500 -184.375 c 0
 232.421875 -184.375 15.625 32.421875 15.625 300 c 0
 15.625 567.578125 232.421875 784.375 500 784.375 c 0xa8
EndSplineSet
Validated: 1
EndChar

StartChar: Udieresis
Encoding: 220 220 203
Width: 1000
VWidth: 0
HStem: -184.375 21G<366.211 633.789> -184.375 21G<366.211 633.789> 764.375 20G<366.211 633.789> 764.375 20G<366.211 633.789>
VStem: 15.625 968.75<155.937 444.063>
LayerCount: 2
Fore
SplineSet
500 784.375 m 0xa8
 767.578125 784.375 984.375 567.578125 984.375 300 c 0
 984.375 32.421875 767.578125 -184.375 500 -184.375 c 0
 232.421875 -184.375 15.625 32.421875 15.625 300 c 0
 15.625 567.578125 232.421875 784.375 500 784.375 c 0xa8
EndSplineSet
Validated: 1
EndChar

StartChar: h
Encoding: 104 104 204
Width: 1000
VWidth: 0
HStem: -184.375 21G<366.211 633.789> -184.375 21G<366.211 633.789> 764.375 20G<366.211 633.789> 764.375 20G<366.211 633.789>
VStem: 15.625 968.75<155.937 444.063>
LayerCount: 2
Fore
SplineSet
500 784.375 m 0xa8
 767.578125 784.375 984.375 567.578125 984.375 300 c 0
 984.375 32.421875 767.578125 -184.375 500 -184.375 c 0
 232.421875 -184.375 15.625 32.421875 15.625 300 c 0
 15.625 567.578125 232.421875 784.375 500 784.375 c 0xa8
EndSplineSet
Validated: 1
EndChar

StartChar: uni0090
Encoding: 144 144 205
Width: 1000
VWidth: 0
HStem: -184.375 21G<366.211 633.789> -184.375 21G<366.211 633.789> 764.375 20G<366.211 633.789> 764.375 20G<366.211 633.789>
VStem: 15.625 968.75<155.937 444.063>
LayerCount: 2
Fore
SplineSet
500 784.375 m 0xa8
 767.578125 784.375 984.375 567.578125 984.375 300 c 0
 984.375 32.421875 767.578125 -184.375 500 -184.375 c 0
 232.421875 -184.375 15.625 32.421875 15.625 300 c 0
 15.625 567.578125 232.421875 784.375 500 784.375 c 0xa8
EndSplineSet
Validated: 1
EndChar

StartChar: uni008F
Encoding: 143 143 206
Width: 1000
VWidth: 0
HStem: -184.375 21G<366.211 633.789> -184.375 21G<366.211 633.789> 764.375 20G<366.211 633.789> 764.375 20G<366.211 633.789>
VStem: 15.625 968.75<155.937 444.063>
LayerCount: 2
Fore
SplineSet
500 784.375 m 0xa8
 767.578125 784.375 984.375 567.578125 984.375 300 c 0
 984.375 32.421875 767.578125 -184.375 500 -184.375 c 0
 232.421875 -184.375 15.625 32.421875 15.625 300 c 0
 15.625 567.578125 232.421875 784.375 500 784.375 c 0xa8
EndSplineSet
Validated: 1
EndChar

StartChar: paragraph
Encoding: 182 182 207
Width: 1000
VWidth: 0
HStem: -184.375 21G<366.211 633.789> -184.375 21G<366.211 633.789> 764.375 20G<366.211 633.789> 764.375 20G<366.211 633.789>
VStem: 15.625 968.75<155.937 444.063>
LayerCount: 2
Fore
SplineSet
500 784.375 m 0xa8
 767.578125 784.375 984.375 567.578125 984.375 300 c 0
 984.375 32.421875 767.578125 -184.375 500 -184.375 c 0
 232.421875 -184.375 15.625 32.421875 15.625 300 c 0
 15.625 567.578125 232.421875 784.375 500 784.375 c 0xa8
EndSplineSet
Validated: 1
EndChar

StartChar: Yacute
Encoding: 221 221 208
Width: 1000
VWidth: 0
HStem: -184.375 21G<366.211 633.789> -184.375 21G<366.211 633.789> 764.375 20G<366.211 633.789> 764.375 20G<366.211 633.789>
VStem: 15.625 968.75<155.937 444.063>
LayerCount: 2
Fore
SplineSet
500 784.375 m 0xa8
 767.578125 784.375 984.375 567.578125 984.375 300 c 0
 984.375 32.421875 767.578125 -184.375 500 -184.375 c 0
 232.421875 -184.375 15.625 32.421875 15.625 300 c 0
 15.625 567.578125 232.421875 784.375 500 784.375 c 0xa8
EndSplineSet
Validated: 1
EndChar

StartChar: i
Encoding: 105 105 209
Width: 1000
VWidth: 0
HStem: -184.375 21G<366.211 633.789> -184.375 21G<366.211 633.789> 764.375 20G<366.211 633.789> 764.375 20G<366.211 633.789>
VStem: 15.625 968.75<155.937 444.063>
LayerCount: 2
Fore
SplineSet
500 784.375 m 0xa8
 767.578125 784.375 984.375 567.578125 984.375 300 c 0
 984.375 32.421875 767.578125 -184.375 500 -184.375 c 0
 232.421875 -184.375 15.625 32.421875 15.625 300 c 0
 15.625 567.578125 232.421875 784.375 500 784.375 c 0xa8
EndSplineSet
Validated: 1
EndChar

StartChar: periodcentered
Encoding: 183 183 210
Width: 1000
VWidth: 0
HStem: -184.375 21G<366.211 633.789> -184.375 21G<366.211 633.789> 764.375 20G<366.211 633.789> 764.375 20G<366.211 633.789>
VStem: 15.625 968.75<155.937 444.063>
LayerCount: 2
Fore
SplineSet
500 784.375 m 0xa8
 767.578125 784.375 984.375 567.578125 984.375 300 c 0
 984.375 32.421875 767.578125 -184.375 500 -184.375 c 0
 232.421875 -184.375 15.625 32.421875 15.625 300 c 0
 15.625 567.578125 232.421875 784.375 500 784.375 c 0xa8
EndSplineSet
Validated: 1
EndChar

StartChar: Thorn
Encoding: 222 222 211
Width: 1000
VWidth: 0
HStem: -184.375 21G<366.211 633.789> -184.375 21G<366.211 633.789> 764.375 20G<366.211 633.789> 764.375 20G<366.211 633.789>
VStem: 15.625 968.75<155.937 444.063>
LayerCount: 2
Fore
SplineSet
500 784.375 m 0xa8
 767.578125 784.375 984.375 567.578125 984.375 300 c 0
 984.375 32.421875 767.578125 -184.375 500 -184.375 c 0
 232.421875 -184.375 15.625 32.421875 15.625 300 c 0
 15.625 567.578125 232.421875 784.375 500 784.375 c 0xa8
EndSplineSet
Validated: 1
EndChar

StartChar: j
Encoding: 106 106 212
Width: 1000
VWidth: 0
HStem: -184.375 21G<366.211 633.789> -184.375 21G<366.211 633.789> 764.375 20G<366.211 633.789> 764.375 20G<366.211 633.789>
VStem: 15.625 968.75<155.937 444.063>
LayerCount: 2
Fore
SplineSet
500 784.375 m 0xa8
 767.578125 784.375 984.375 567.578125 984.375 300 c 0
 984.375 32.421875 767.578125 -184.375 500 -184.375 c 0
 232.421875 -184.375 15.625 32.421875 15.625 300 c 0
 15.625 567.578125 232.421875 784.375 500 784.375 c 0xa8
EndSplineSet
Validated: 1
EndChar

StartChar: uni0091
Encoding: 145 145 213
Width: 1000
VWidth: 0
HStem: -184.375 21G<366.211 633.789> -184.375 21G<366.211 633.789> 764.375 20G<366.211 633.789> 764.375 20G<366.211 633.789>
VStem: 15.625 968.75<155.937 444.063>
LayerCount: 2
Fore
SplineSet
500 784.375 m 0xa8
 767.578125 784.375 984.375 567.578125 984.375 300 c 0
 984.375 32.421875 767.578125 -184.375 500 -184.375 c 0
 232.421875 -184.375 15.625 32.421875 15.625 300 c 0
 15.625 567.578125 232.421875 784.375 500 784.375 c 0xa8
EndSplineSet
Validated: 1
EndChar

StartChar: cedilla
Encoding: 184 184 214
Width: 1000
VWidth: 0
HStem: -184.375 21G<366.211 633.789> -184.375 21G<366.211 633.789> 764.375 20G<366.211 633.789> 764.375 20G<366.211 633.789>
VStem: 15.625 968.75<155.937 444.063>
LayerCount: 2
Fore
SplineSet
500 784.375 m 0xa8
 767.578125 784.375 984.375 567.578125 984.375 300 c 0
 984.375 32.421875 767.578125 -184.375 500 -184.375 c 0
 232.421875 -184.375 15.625 32.421875 15.625 300 c 0
 15.625 567.578125 232.421875 784.375 500 784.375 c 0xa8
EndSplineSet
Validated: 1
EndChar

StartChar: germandbls
Encoding: 223 223 215
Width: 1000
VWidth: 0
HStem: -184.375 21G<366.211 633.789> -184.375 21G<366.211 633.789> 764.375 20G<366.211 633.789> 764.375 20G<366.211 633.789>
VStem: 15.625 968.75<155.937 444.063>
LayerCount: 2
Fore
SplineSet
500 784.375 m 0xa8
 767.578125 784.375 984.375 567.578125 984.375 300 c 0
 984.375 32.421875 767.578125 -184.375 500 -184.375 c 0
 232.421875 -184.375 15.625 32.421875 15.625 300 c 0
 15.625 567.578125 232.421875 784.375 500 784.375 c 0xa8
EndSplineSet
Validated: 1
EndChar

StartChar: k
Encoding: 107 107 216
Width: 1000
VWidth: 0
HStem: -184.375 21G<366.211 633.789> -184.375 21G<366.211 633.789> 764.375 20G<366.211 633.789> 764.375 20G<366.211 633.789>
VStem: 15.625 968.75<155.937 444.063>
LayerCount: 2
Fore
SplineSet
500 784.375 m 0xa8
 767.578125 784.375 984.375 567.578125 984.375 300 c 0
 984.375 32.421875 767.578125 -184.375 500 -184.375 c 0
 232.421875 -184.375 15.625 32.421875 15.625 300 c 0
 15.625 567.578125 232.421875 784.375 500 784.375 c 0xa8
EndSplineSet
Validated: 1
EndChar

StartChar: uni0092
Encoding: 146 146 217
Width: 1000
VWidth: 0
HStem: -184.375 21G<366.211 633.789> -184.375 21G<366.211 633.789> 764.375 20G<366.211 633.789> 764.375 20G<366.211 633.789>
VStem: 15.625 968.75<155.937 444.063>
LayerCount: 2
Fore
SplineSet
500 784.375 m 0xa8
 767.578125 784.375 984.375 567.578125 984.375 300 c 0
 984.375 32.421875 767.578125 -184.375 500 -184.375 c 0
 232.421875 -184.375 15.625 32.421875 15.625 300 c 0
 15.625 567.578125 232.421875 784.375 500 784.375 c 0xa8
EndSplineSet
Validated: 1
EndChar

StartChar: uni00B9
Encoding: 185 185 218
Width: 1000
VWidth: 0
HStem: -184.375 21G<366.211 633.789> -184.375 21G<366.211 633.789> 764.375 20G<366.211 633.789> 764.375 20G<366.211 633.789>
VStem: 15.625 968.75<155.937 444.063>
LayerCount: 2
Fore
SplineSet
500 784.375 m 0xa8
 767.578125 784.375 984.375 567.578125 984.375 300 c 0
 984.375 32.421875 767.578125 -184.375 500 -184.375 c 0
 232.421875 -184.375 15.625 32.421875 15.625 300 c 0
 15.625 567.578125 232.421875 784.375 500 784.375 c 0xa8
EndSplineSet
Validated: 1
EndChar

StartChar: agrave
Encoding: 224 224 219
Width: 1000
VWidth: 0
HStem: -184.375 21G<366.211 633.789> -184.375 21G<366.211 633.789> 764.375 20G<366.211 633.789> 764.375 20G<366.211 633.789>
VStem: 15.625 968.75<155.937 444.063>
LayerCount: 2
Fore
SplineSet
500 784.375 m 0xa8
 767.578125 784.375 984.375 567.578125 984.375 300 c 0
 984.375 32.421875 767.578125 -184.375 500 -184.375 c 0
 232.421875 -184.375 15.625 32.421875 15.625 300 c 0
 15.625 567.578125 232.421875 784.375 500 784.375 c 0xa8
EndSplineSet
Validated: 1
EndChar

StartChar: l
Encoding: 108 108 220
Width: 1000
VWidth: 0
HStem: -184.375 21G<366.211 633.789> -184.375 21G<366.211 633.789> 764.375 20G<366.211 633.789> 764.375 20G<366.211 633.789>
VStem: 15.625 968.75<155.937 444.063>
LayerCount: 2
Fore
SplineSet
500 784.375 m 0xa8
 767.578125 784.375 984.375 567.578125 984.375 300 c 0
 984.375 32.421875 767.578125 -184.375 500 -184.375 c 0
 232.421875 -184.375 15.625 32.421875 15.625 300 c 0
 15.625 567.578125 232.421875 784.375 500 784.375 c 0xa8
EndSplineSet
Validated: 1
EndChar

StartChar: uni0093
Encoding: 147 147 221
Width: 1000
VWidth: 0
HStem: -184.375 21G<366.211 633.789> -184.375 21G<366.211 633.789> 764.375 20G<366.211 633.789> 764.375 20G<366.211 633.789>
VStem: 15.625 968.75<155.937 444.063>
LayerCount: 2
Fore
SplineSet
500 784.375 m 0xa8
 767.578125 784.375 984.375 567.578125 984.375 300 c 0
 984.375 32.421875 767.578125 -184.375 500 -184.375 c 0
 232.421875 -184.375 15.625 32.421875 15.625 300 c 0
 15.625 567.578125 232.421875 784.375 500 784.375 c 0xa8
EndSplineSet
Validated: 1
EndChar

StartChar: ordmasculine
Encoding: 186 186 222
Width: 1000
VWidth: 0
HStem: -184.375 21G<366.211 633.789> -184.375 21G<366.211 633.789> 764.375 20G<366.211 633.789> 764.375 20G<366.211 633.789>
VStem: 15.625 968.75<155.937 444.063>
LayerCount: 2
Fore
SplineSet
500 784.375 m 0xa8
 767.578125 784.375 984.375 567.578125 984.375 300 c 0
 984.375 32.421875 767.578125 -184.375 500 -184.375 c 0
 232.421875 -184.375 15.625 32.421875 15.625 300 c 0
 15.625 567.578125 232.421875 784.375 500 784.375 c 0xa8
EndSplineSet
Validated: 1
EndChar

StartChar: aacute
Encoding: 225 225 223
Width: 1000
VWidth: 0
HStem: -184.375 21G<366.211 633.789> -184.375 21G<366.211 633.789> 764.375 20G<366.211 633.789> 764.375 20G<366.211 633.789>
VStem: 15.625 968.75<155.937 444.063>
LayerCount: 2
Fore
SplineSet
500 784.375 m 0xa8
 767.578125 784.375 984.375 567.578125 984.375 300 c 0
 984.375 32.421875 767.578125 -184.375 500 -184.375 c 0
 232.421875 -184.375 15.625 32.421875 15.625 300 c 0
 15.625 567.578125 232.421875 784.375 500 784.375 c 0xa8
EndSplineSet
Validated: 1
EndChar

StartChar: m
Encoding: 109 109 224
Width: 1000
VWidth: 0
HStem: -184.375 21G<366.211 633.789> -184.375 21G<366.211 633.789> 764.375 20G<366.211 633.789> 764.375 20G<366.211 633.789>
VStem: 15.625 968.75<155.937 444.063>
LayerCount: 2
Fore
SplineSet
500 784.375 m 0xa8
 767.578125 784.375 984.375 567.578125 984.375 300 c 0
 984.375 32.421875 767.578125 -184.375 500 -184.375 c 0
 232.421875 -184.375 15.625 32.421875 15.625 300 c 0
 15.625 567.578125 232.421875 784.375 500 784.375 c 0xa8
EndSplineSet
Validated: 1
EndChar

StartChar: uni0094
Encoding: 148 148 225
Width: 1000
VWidth: 0
HStem: -184.375 21G<366.211 633.789> -184.375 21G<366.211 633.789> 764.375 20G<366.211 633.789> 764.375 20G<366.211 633.789>
VStem: 15.625 968.75<155.937 444.063>
LayerCount: 2
Fore
SplineSet
500 784.375 m 0xa8
 767.578125 784.375 984.375 567.578125 984.375 300 c 0
 984.375 32.421875 767.578125 -184.375 500 -184.375 c 0
 232.421875 -184.375 15.625 32.421875 15.625 300 c 0
 15.625 567.578125 232.421875 784.375 500 784.375 c 0xa8
EndSplineSet
Validated: 1
EndChar

StartChar: guillemotright
Encoding: 187 187 226
Width: 1000
VWidth: 0
HStem: -184.375 21G<366.211 633.789> -184.375 21G<366.211 633.789> 764.375 20G<366.211 633.789> 764.375 20G<366.211 633.789>
VStem: 15.625 968.75<155.937 444.063>
LayerCount: 2
Fore
SplineSet
500 784.375 m 0xa8
 767.578125 784.375 984.375 567.578125 984.375 300 c 0
 984.375 32.421875 767.578125 -184.375 500 -184.375 c 0
 232.421875 -184.375 15.625 32.421875 15.625 300 c 0
 15.625 567.578125 232.421875 784.375 500 784.375 c 0xa8
EndSplineSet
Validated: 1
EndChar

StartChar: acircumflex
Encoding: 226 226 227
Width: 1000
VWidth: 0
HStem: -184.375 21G<366.211 633.789> -184.375 21G<366.211 633.789> 764.375 20G<366.211 633.789> 764.375 20G<366.211 633.789>
VStem: 15.625 968.75<155.937 444.063>
LayerCount: 2
Fore
SplineSet
500 784.375 m 0xa8
 767.578125 784.375 984.375 567.578125 984.375 300 c 0
 984.375 32.421875 767.578125 -184.375 500 -184.375 c 0
 232.421875 -184.375 15.625 32.421875 15.625 300 c 0
 15.625 567.578125 232.421875 784.375 500 784.375 c 0xa8
EndSplineSet
Validated: 1
EndChar

StartChar: n
Encoding: 110 110 228
Width: 1000
VWidth: 0
HStem: -184.375 21G<366.211 633.789> -184.375 21G<366.211 633.789> 764.375 20G<366.211 633.789> 764.375 20G<366.211 633.789>
VStem: 15.625 968.75<155.937 444.063>
LayerCount: 2
Fore
SplineSet
500 784.375 m 0xa8
 767.578125 784.375 984.375 567.578125 984.375 300 c 0
 984.375 32.421875 767.578125 -184.375 500 -184.375 c 0
 232.421875 -184.375 15.625 32.421875 15.625 300 c 0
 15.625 567.578125 232.421875 784.375 500 784.375 c 0xa8
EndSplineSet
Validated: 1
EndChar

StartChar: uni0095
Encoding: 149 149 229
Width: 1000
VWidth: 0
HStem: -184.375 21G<366.211 633.789> -184.375 21G<366.211 633.789> 764.375 20G<366.211 633.789> 764.375 20G<366.211 633.789>
VStem: 15.625 968.75<155.937 444.063>
LayerCount: 2
Fore
SplineSet
500 784.375 m 0xa8
 767.578125 784.375 984.375 567.578125 984.375 300 c 0
 984.375 32.421875 767.578125 -184.375 500 -184.375 c 0
 232.421875 -184.375 15.625 32.421875 15.625 300 c 0
 15.625 567.578125 232.421875 784.375 500 784.375 c 0xa8
EndSplineSet
Validated: 1
EndChar

StartChar: onequarter
Encoding: 188 188 230
Width: 1000
VWidth: 0
HStem: -184.375 21G<366.211 633.789> -184.375 21G<366.211 633.789> 764.375 20G<366.211 633.789> 764.375 20G<366.211 633.789>
VStem: 15.625 968.75<155.937 444.063>
LayerCount: 2
Fore
SplineSet
500 784.375 m 0xa8
 767.578125 784.375 984.375 567.578125 984.375 300 c 0
 984.375 32.421875 767.578125 -184.375 500 -184.375 c 0
 232.421875 -184.375 15.625 32.421875 15.625 300 c 0
 15.625 567.578125 232.421875 784.375 500 784.375 c 0xa8
EndSplineSet
Validated: 1
EndChar

StartChar: atilde
Encoding: 227 227 231
Width: 1000
VWidth: 0
HStem: -184.375 21G<366.211 633.789> -184.375 21G<366.211 633.789> 764.375 20G<366.211 633.789> 764.375 20G<366.211 633.789>
VStem: 15.625 968.75<155.937 444.063>
LayerCount: 2
Fore
SplineSet
500 784.375 m 0xa8
 767.578125 784.375 984.375 567.578125 984.375 300 c 0
 984.375 32.421875 767.578125 -184.375 500 -184.375 c 0
 232.421875 -184.375 15.625 32.421875 15.625 300 c 0
 15.625 567.578125 232.421875 784.375 500 784.375 c 0xa8
EndSplineSet
Validated: 1
EndChar

StartChar: o
Encoding: 111 111 232
Width: 1000
VWidth: 0
HStem: -184.375 21G<366.211 633.789> -184.375 21G<366.211 633.789> 764.375 20G<366.211 633.789> 764.375 20G<366.211 633.789>
VStem: 15.625 968.75<155.937 444.063>
LayerCount: 2
Fore
SplineSet
500 784.375 m 0xa8
 767.578125 784.375 984.375 567.578125 984.375 300 c 0
 984.375 32.421875 767.578125 -184.375 500 -184.375 c 0
 232.421875 -184.375 15.625 32.421875 15.625 300 c 0
 15.625 567.578125 232.421875 784.375 500 784.375 c 0xa8
EndSplineSet
Validated: 1
EndChar

StartChar: uni0096
Encoding: 150 150 233
Width: 1000
VWidth: 0
HStem: -184.375 21G<366.211 633.789> -184.375 21G<366.211 633.789> 764.375 20G<366.211 633.789> 764.375 20G<366.211 633.789>
VStem: 15.625 968.75<155.937 444.063>
LayerCount: 2
Fore
SplineSet
500 784.375 m 0xa8
 767.578125 784.375 984.375 567.578125 984.375 300 c 0
 984.375 32.421875 767.578125 -184.375 500 -184.375 c 0
 232.421875 -184.375 15.625 32.421875 15.625 300 c 0
 15.625 567.578125 232.421875 784.375 500 784.375 c 0xa8
EndSplineSet
Validated: 1
EndChar

StartChar: onehalf
Encoding: 189 189 234
Width: 1000
VWidth: 0
HStem: -184.375 21G<366.211 633.789> -184.375 21G<366.211 633.789> 764.375 20G<366.211 633.789> 764.375 20G<366.211 633.789>
VStem: 15.625 968.75<155.937 444.063>
LayerCount: 2
Fore
SplineSet
500 784.375 m 0xa8
 767.578125 784.375 984.375 567.578125 984.375 300 c 0
 984.375 32.421875 767.578125 -184.375 500 -184.375 c 0
 232.421875 -184.375 15.625 32.421875 15.625 300 c 0
 15.625 567.578125 232.421875 784.375 500 784.375 c 0xa8
EndSplineSet
Validated: 1
EndChar

StartChar: adieresis
Encoding: 228 228 235
Width: 1000
VWidth: 0
HStem: -184.375 21G<366.211 633.789> -184.375 21G<366.211 633.789> 764.375 20G<366.211 633.789> 764.375 20G<366.211 633.789>
VStem: 15.625 968.75<155.937 444.063>
LayerCount: 2
Fore
SplineSet
500 784.375 m 0xa8
 767.578125 784.375 984.375 567.578125 984.375 300 c 0
 984.375 32.421875 767.578125 -184.375 500 -184.375 c 0
 232.421875 -184.375 15.625 32.421875 15.625 300 c 0
 15.625 567.578125 232.421875 784.375 500 784.375 c 0xa8
EndSplineSet
Validated: 1
EndChar

StartChar: p
Encoding: 112 112 236
Width: 1000
VWidth: 0
HStem: -184.375 21G<366.211 633.789> -184.375 21G<366.211 633.789> 764.375 20G<366.211 633.789> 764.375 20G<366.211 633.789>
VStem: 15.625 968.75<155.937 444.063>
LayerCount: 2
Fore
SplineSet
500 784.375 m 0xa8
 767.578125 784.375 984.375 567.578125 984.375 300 c 0
 984.375 32.421875 767.578125 -184.375 500 -184.375 c 0
 232.421875 -184.375 15.625 32.421875 15.625 300 c 0
 15.625 567.578125 232.421875 784.375 500 784.375 c 0xa8
EndSplineSet
Validated: 1
EndChar

StartChar: uni0097
Encoding: 151 151 237
Width: 1000
VWidth: 0
HStem: -184.375 21G<366.211 633.789> -184.375 21G<366.211 633.789> 764.375 20G<366.211 633.789> 764.375 20G<366.211 633.789>
VStem: 15.625 968.75<155.937 444.063>
LayerCount: 2
Fore
SplineSet
500 784.375 m 0xa8
 767.578125 784.375 984.375 567.578125 984.375 300 c 0
 984.375 32.421875 767.578125 -184.375 500 -184.375 c 0
 232.421875 -184.375 15.625 32.421875 15.625 300 c 0
 15.625 567.578125 232.421875 784.375 500 784.375 c 0xa8
EndSplineSet
Validated: 1
EndChar

StartChar: threequarters
Encoding: 190 190 238
Width: 1000
VWidth: 0
HStem: -184.375 21G<366.211 633.789> -184.375 21G<366.211 633.789> 764.375 20G<366.211 633.789> 764.375 20G<366.211 633.789>
VStem: 15.625 968.75<155.937 444.063>
LayerCount: 2
Fore
SplineSet
500 784.375 m 0xa8
 767.578125 784.375 984.375 567.578125 984.375 300 c 0
 984.375 32.421875 767.578125 -184.375 500 -184.375 c 0
 232.421875 -184.375 15.625 32.421875 15.625 300 c 0
 15.625 567.578125 232.421875 784.375 500 784.375 c 0xa8
EndSplineSet
Validated: 1
EndChar

StartChar: aring
Encoding: 229 229 239
Width: 1000
VWidth: 0
HStem: -184.375 21G<366.211 633.789> -184.375 21G<366.211 633.789> 764.375 20G<366.211 633.789> 764.375 20G<366.211 633.789>
VStem: 15.625 968.75<155.937 444.063>
LayerCount: 2
Fore
SplineSet
500 784.375 m 0xa8
 767.578125 784.375 984.375 567.578125 984.375 300 c 0
 984.375 32.421875 767.578125 -184.375 500 -184.375 c 0
 232.421875 -184.375 15.625 32.421875 15.625 300 c 0
 15.625 567.578125 232.421875 784.375 500 784.375 c 0xa8
EndSplineSet
Validated: 1
EndChar

StartChar: q
Encoding: 113 113 240
Width: 1000
VWidth: 0
HStem: -184.375 21G<366.211 633.789> -184.375 21G<366.211 633.789> 764.375 20G<366.211 633.789> 764.375 20G<366.211 633.789>
VStem: 15.625 968.75<155.937 444.063>
LayerCount: 2
Fore
SplineSet
500 784.375 m 0xa8
 767.578125 784.375 984.375 567.578125 984.375 300 c 0
 984.375 32.421875 767.578125 -184.375 500 -184.375 c 0
 232.421875 -184.375 15.625 32.421875 15.625 300 c 0
 15.625 567.578125 232.421875 784.375 500 784.375 c 0xa8
EndSplineSet
Validated: 1
EndChar

StartChar: uni0098
Encoding: 152 152 241
Width: 1000
VWidth: 0
HStem: -184.375 21G<366.211 633.789> -184.375 21G<366.211 633.789> 764.375 20G<366.211 633.789> 764.375 20G<366.211 633.789>
VStem: 15.625 968.75<155.937 444.063>
LayerCount: 2
Fore
SplineSet
500 784.375 m 0xa8
 767.578125 784.375 984.375 567.578125 984.375 300 c 0
 984.375 32.421875 767.578125 -184.375 500 -184.375 c 0
 232.421875 -184.375 15.625 32.421875 15.625 300 c 0
 15.625 567.578125 232.421875 784.375 500 784.375 c 0xa8
EndSplineSet
Validated: 1
EndChar

StartChar: questiondown
Encoding: 191 191 242
Width: 1000
VWidth: 0
HStem: -184.375 21G<366.211 633.789> -184.375 21G<366.211 633.789> 764.375 20G<366.211 633.789> 764.375 20G<366.211 633.789>
VStem: 15.625 968.75<155.937 444.063>
LayerCount: 2
Fore
SplineSet
500 784.375 m 0xa8
 767.578125 784.375 984.375 567.578125 984.375 300 c 0
 984.375 32.421875 767.578125 -184.375 500 -184.375 c 0
 232.421875 -184.375 15.625 32.421875 15.625 300 c 0
 15.625 567.578125 232.421875 784.375 500 784.375 c 0xa8
EndSplineSet
Validated: 1
EndChar

StartChar: ae
Encoding: 230 230 243
Width: 1000
VWidth: 0
HStem: -184.375 21G<366.211 633.789> -184.375 21G<366.211 633.789> 764.375 20G<366.211 633.789> 764.375 20G<366.211 633.789>
VStem: 15.625 968.75<155.937 444.063>
LayerCount: 2
Fore
SplineSet
500 784.375 m 0xa8
 767.578125 784.375 984.375 567.578125 984.375 300 c 0
 984.375 32.421875 767.578125 -184.375 500 -184.375 c 0
 232.421875 -184.375 15.625 32.421875 15.625 300 c 0
 15.625 567.578125 232.421875 784.375 500 784.375 c 0xa8
EndSplineSet
Validated: 1
EndChar

StartChar: r
Encoding: 114 114 244
Width: 1000
VWidth: 0
HStem: -184.375 21G<366.211 633.789> -184.375 21G<366.211 633.789> 764.375 20G<366.211 633.789> 764.375 20G<366.211 633.789>
VStem: 15.625 968.75<155.937 444.063>
LayerCount: 2
Fore
SplineSet
500 784.375 m 0xa8
 767.578125 784.375 984.375 567.578125 984.375 300 c 0
 984.375 32.421875 767.578125 -184.375 500 -184.375 c 0
 232.421875 -184.375 15.625 32.421875 15.625 300 c 0
 15.625 567.578125 232.421875 784.375 500 784.375 c 0xa8
EndSplineSet
Validated: 1
EndChar

StartChar: uni0099
Encoding: 153 153 245
Width: 1000
VWidth: 0
HStem: -184.375 21G<366.211 633.789> -184.375 21G<366.211 633.789> 764.375 20G<366.211 633.789> 764.375 20G<366.211 633.789>
VStem: 15.625 968.75<155.937 444.063>
LayerCount: 2
Fore
SplineSet
500 784.375 m 0xa8
 767.578125 784.375 984.375 567.578125 984.375 300 c 0
 984.375 32.421875 767.578125 -184.375 500 -184.375 c 0
 232.421875 -184.375 15.625 32.421875 15.625 300 c 0
 15.625 567.578125 232.421875 784.375 500 784.375 c 0xa8
EndSplineSet
Validated: 1
EndChar

StartChar: Agrave
Encoding: 192 192 246
Width: 1000
VWidth: 0
HStem: -184.375 21G<366.211 633.789> -184.375 21G<366.211 633.789> 764.375 20G<366.211 633.789> 764.375 20G<366.211 633.789>
VStem: 15.625 968.75<155.937 444.063>
LayerCount: 2
Fore
SplineSet
500 784.375 m 0xa8
 767.578125 784.375 984.375 567.578125 984.375 300 c 0
 984.375 32.421875 767.578125 -184.375 500 -184.375 c 0
 232.421875 -184.375 15.625 32.421875 15.625 300 c 0
 15.625 567.578125 232.421875 784.375 500 784.375 c 0xa8
EndSplineSet
Validated: 1
EndChar

StartChar: ccedilla
Encoding: 231 231 247
Width: 1000
VWidth: 0
HStem: -184.375 21G<366.211 633.789> -184.375 21G<366.211 633.789> 764.375 20G<366.211 633.789> 764.375 20G<366.211 633.789>
VStem: 15.625 968.75<155.937 444.063>
LayerCount: 2
Fore
SplineSet
500 784.375 m 0xa8
 767.578125 784.375 984.375 567.578125 984.375 300 c 0
 984.375 32.421875 767.578125 -184.375 500 -184.375 c 0
 232.421875 -184.375 15.625 32.421875 15.625 300 c 0
 15.625 567.578125 232.421875 784.375 500 784.375 c 0xa8
EndSplineSet
Validated: 1
EndChar

StartChar: s
Encoding: 115 115 248
Width: 1000
VWidth: 0
HStem: -184.375 21G<366.211 633.789> -184.375 21G<366.211 633.789> 764.375 20G<366.211 633.789> 764.375 20G<366.211 633.789>
VStem: 15.625 968.75<155.937 444.063>
LayerCount: 2
Fore
SplineSet
500 784.375 m 0xa8
 767.578125 784.375 984.375 567.578125 984.375 300 c 0
 984.375 32.421875 767.578125 -184.375 500 -184.375 c 0
 232.421875 -184.375 15.625 32.421875 15.625 300 c 0
 15.625 567.578125 232.421875 784.375 500 784.375 c 0xa8
EndSplineSet
Validated: 1
EndChar

StartChar: uni009A
Encoding: 154 154 249
Width: 1000
VWidth: 0
HStem: -184.375 21G<366.211 633.789> -184.375 21G<366.211 633.789> 764.375 20G<366.211 633.789> 764.375 20G<366.211 633.789>
VStem: 15.625 968.75<155.937 444.063>
LayerCount: 2
Fore
SplineSet
500 784.375 m 0xa8
 767.578125 784.375 984.375 567.578125 984.375 300 c 0
 984.375 32.421875 767.578125 -184.375 500 -184.375 c 0
 232.421875 -184.375 15.625 32.421875 15.625 300 c 0
 15.625 567.578125 232.421875 784.375 500 784.375 c 0xa8
EndSplineSet
Validated: 1
EndChar

StartChar: Aacute
Encoding: 193 193 250
Width: 1000
VWidth: 0
HStem: -184.375 21G<366.211 633.789> -184.375 21G<366.211 633.789> 764.375 20G<366.211 633.789> 764.375 20G<366.211 633.789>
VStem: 15.625 968.75<155.937 444.063>
LayerCount: 2
Fore
SplineSet
500 784.375 m 0xa8
 767.578125 784.375 984.375 567.578125 984.375 300 c 0
 984.375 32.421875 767.578125 -184.375 500 -184.375 c 0
 232.421875 -184.375 15.625 32.421875 15.625 300 c 0
 15.625 567.578125 232.421875 784.375 500 784.375 c 0xa8
EndSplineSet
Validated: 1
EndChar

StartChar: egrave
Encoding: 232 232 251
Width: 1000
VWidth: 0
HStem: -184.375 21G<366.211 633.789> -184.375 21G<366.211 633.789> 764.375 20G<366.211 633.789> 764.375 20G<366.211 633.789>
VStem: 15.625 968.75<155.937 444.063>
LayerCount: 2
Fore
SplineSet
500 784.375 m 0xa8
 767.578125 784.375 984.375 567.578125 984.375 300 c 0
 984.375 32.421875 767.578125 -184.375 500 -184.375 c 0
 232.421875 -184.375 15.625 32.421875 15.625 300 c 0
 15.625 567.578125 232.421875 784.375 500 784.375 c 0xa8
EndSplineSet
Validated: 1
EndChar

StartChar: t
Encoding: 116 116 252
Width: 1000
VWidth: 0
HStem: -184.375 21G<366.211 633.789> -184.375 21G<366.211 633.789> 764.375 20G<366.211 633.789> 764.375 20G<366.211 633.789>
VStem: 15.625 968.75<155.937 444.063>
LayerCount: 2
Fore
SplineSet
500 784.375 m 0xa8
 767.578125 784.375 984.375 567.578125 984.375 300 c 0
 984.375 32.421875 767.578125 -184.375 500 -184.375 c 0
 232.421875 -184.375 15.625 32.421875 15.625 300 c 0
 15.625 567.578125 232.421875 784.375 500 784.375 c 0xa8
EndSplineSet
Validated: 1
EndChar

StartChar: uni009B
Encoding: 155 155 253
Width: 1000
VWidth: 0
HStem: -184.375 21G<366.211 633.789> -184.375 21G<366.211 633.789> 764.375 20G<366.211 633.789> 764.375 20G<366.211 633.789>
VStem: 15.625 968.75<155.937 444.063>
LayerCount: 2
Fore
SplineSet
500 784.375 m 0xa8
 767.578125 784.375 984.375 567.578125 984.375 300 c 0
 984.375 32.421875 767.578125 -184.375 500 -184.375 c 0
 232.421875 -184.375 15.625 32.421875 15.625 300 c 0
 15.625 567.578125 232.421875 784.375 500 784.375 c 0xa8
EndSplineSet
Validated: 1
EndChar

StartChar: Acircumflex
Encoding: 194 194 254
Width: 1000
VWidth: 0
HStem: -184.375 21G<366.211 633.789> -184.375 21G<366.211 633.789> 764.375 20G<366.211 633.789> 764.375 20G<366.211 633.789>
VStem: 15.625 968.75<155.937 444.063>
LayerCount: 2
Fore
SplineSet
500 784.375 m 0xa8
 767.578125 784.375 984.375 567.578125 984.375 300 c 0
 984.375 32.421875 767.578125 -184.375 500 -184.375 c 0
 232.421875 -184.375 15.625 32.421875 15.625 300 c 0
 15.625 567.578125 232.421875 784.375 500 784.375 c 0xa8
EndSplineSet
Validated: 1
EndChar

StartChar: eacute
Encoding: 233 233 255
Width: 1000
VWidth: 0
HStem: -184.375 21G<366.211 633.789> -184.375 21G<366.211 633.789> 764.375 20G<366.211 633.789> 764.375 20G<366.211 633.789>
VStem: 15.625 968.75<155.937 444.063>
LayerCount: 2
Fore
SplineSet
500 784.375 m 0xa8
 767.578125 784.375 984.375 567.578125 984.375 300 c 0
 984.375 32.421875 767.578125 -184.375 500 -184.375 c 0
 232.421875 -184.375 15.625 32.421875 15.625 300 c 0
 15.625 567.578125 232.421875 784.375 500 784.375 c 0xa8
EndSplineSet
Validated: 1
EndChar
